<?xml version="1.0" encoding="iso-8859-1"?>
<!-- Generator: Adobe Illustrator 16.0.0, SVG Export Plug-In . SVG Version: 6.00 Build 0)  -->
<!DOCTYPE svg PUBLIC "-//W3C//DTD SVG 1.1//EN" "http://www.w3.org/Graphics/SVG/1.1/DTD/svg11.dtd">
<svg version="1.1" xmlns="http://www.w3.org/2000/svg" xmlns:xlink="http://www.w3.org/1999/xlink" x="0px" y="0px"
	 width="249.501px" height="249.667px" viewBox="0 0 249.501 249.667" style="enable-background:new 0 0 249.501 249.667;"
	 xml:space="preserve">
<g id="Layer_1">
	<g style="display:none;">
		<g style="display:inline;">
			<path style="fill:#FFFFFF;" d="M-1368.583,72.536c1.009,0,3.111-1.531,1.156-1.531
				C-1368.436,71.004-1370.538,72.536-1368.583,72.536L-1368.583,72.536z"/>
		</g>
	</g>
</g>
<g id="_x2E_NET">
	<rect x="-1617.005" style="fill:#1785AA;stroke:#000000;stroke-miterlimit:10;" width="249.5" height="249.667"/>
	<path style="display:none;fill:#1785AA;stroke:#000000;stroke-miterlimit:10;" d="M-1582.928,124.834c0,0-17.25,0-4.75,11.916
		c9.555,9.108,29.328-27.646,26.75-64.25c-0.5-7.101,20.5,67.933,20.5,67.933s-7.5-46.933-38-34.933c-6.868,2.891-12,13.5-12,13.5"
		/>
	<g>
		<g>
			<path style="fill:#11647B;" d="M-1526.758,99.115c49.009,0,98.018,0,147.027,0c3.278,0,6.558,0,9.837,0
				c2.518,0,5.999-0.973,7.707-2.955c1.797-2.086-1.542-2.607-2.928-2.607c-49.009,0-98.018,0-147.026,0c-3.279,0-6.558,0-9.836,0
				c-2.518,0-6,0.973-7.707,2.955C-1531.482,98.594-1528.144,99.115-1526.758,99.115L-1526.758,99.115z"/>
		</g>
	</g>
	<g>
		<g>
			<path style="fill:#11647B;" d="M-1526.102,170.341c49.083,0,98.166,0,147.249,0c3.44,0,6.881,0,10.322,0
				c6.59,0,8.922-8.393,1.053-8.393c-49.082,0-98.165,0-147.248,0c-3.441,0-6.881,0-10.322,0
				C-1531.639,161.948-1533.971,170.341-1526.102,170.341L-1526.102,170.341z"/>
		</g>
	</g>
	<g>
		<g>
			<path style="fill:#11647B;" d="M-1436.844,7.369c0,46.622,0,93.243,0,139.865c0,32.723,0,65.445,0,98.168
				c0,1.454,11.592-0.084,11.592-3.105c0-46.622,0-93.243,0-139.865c0-32.723,0-65.445,0-98.168
				C-1425.252,2.81-1436.844,4.348-1436.844,7.369L-1436.844,7.369z"/>
		</g>
	</g>
	<g>
		<g>
			<path style="fill:#11647B;" d="M-1362.209,237.478c0-47.638,0-95.276,0-142.914c0-28.494,0-56.987,0-85.481
				c-0.205-0.566-0.593-0.958-1.163-1.174c-21.626-10.38-49.349-9.328-71.942-3.748c-25.007,6.176-47.485,20.099-66.415,37.277
				c-10.798,9.799-17.737,23.433-23.608,36.653c-5.056,11.384-8.473,23.471-10.073,35.82
				c-8.376,64.618,43.225,125.46,106.641,133.765c20.629,2.702,41.598-0.327,61.5-5.899
				C-1365.724,241.344-1361.578,239.834-1362.209,237.478c-0.626-2.333-4.987-1.626-6.531-1.193
				c-23.263,6.513-47.835,8.751-71.17,1.345c-13.265-4.21-25.771-11.724-37.003-19.215c-23.904-15.946-40.459-45.127-45.859-72.781
				c-4.47-22.887-0.56-46.24,8.355-67.572c2.776-6.643,6.16-13.003,9.822-19.195c1.922-3.251,3.993-6.413,6.104-9.544
				c2.59-3.843,6.753-6.927,10.221-9.952c10.388-9.058,21.963-16.852,34.48-22.648c24.415-11.307,55.379-14.634,80.582-3.618
				c0.18,0.078,0.357,0.159,0.535,0.242c-1.208-0.568-1.127-1.586-1.127-0.198c0,0.822,0,1.644,0,2.466c0,0.368,0,0.736,0,1.104
				c0,2.22,0,4.439,0,6.659c0,9.836,0,19.672,0,29.509c0,31.077,0,62.155,0,93.232c0,31.489,0,62.978,0,94.467
				C-1373.801,243.961-1362.209,241.829-1362.209,237.478z"/>
		</g>
	</g>
	
		<text transform="matrix(1 0 0 1 -1579.1001 83.5537)" style="fill:#FFFFFF;stroke:#FFFFFF;stroke-miterlimit:10; font-family:'MyriadPro-Regular'; font-size:48;">ASP.NET</text>
</g>
<g id="IconStar">
	
		<image style="display:none;overflow:visible;" width="800" height="533" xlink:href="27B4A5F0.jpg"  transform="matrix(0.427 0 0 0.427 -12.002 11.0459)">
	</image>
	<path style="fill:#1E1E1E;stroke:#000000;stroke-miterlimit:10;" d="M79.822,109.25c0,0,6.5-5,7.5-10.5c0-0.875,0-0.875,0-0.875
		s-3.813-2.813,0-5.625c-0.625-2,0-9.5,0-9.5s-1.625-4.25-1.5-6.75c-0.625-0.375-2.625-1.75-2.25-5.375c0,0-5.25-2.75-2.25-6.125
		c-3.75-2-2.125-6.125-2.125-6.125s-3.201-5.25-0.351-5.875s-4.399,0.375-2.649-4.625C74.197,45.5,75.322,43,75.322,43
		s-5.5-15.125,2.25-17.75s9.75,1.375,9.75,1.375s3.375-0.75,3.375,2.625s1.625-1.5,3.625,3.125c1.5,0.5,5.125-0.75,4,3.5
		c4.375,1.25,4.25,5.875,4.25,5.875s2.5,0.625,2,3.625s4.625-1.375,4.625,3.75c4.625,1.25,4.875,5.625,4.875,5.625
		s4.375,0.125,3.875,4c4,0.75,5.875-0.125,4.75,5.5c2.125,5.5,5.75,5,7,5s3.5-0.75,4.625,1.875s14.125,5.75,31.375-6.875
		c1.625-1.875,5.125-4.125,5.125-4.125s0.375-4.25,3.625-3s6.75-3.625,6.75-3.625s-0.5-3.75,4.625-3.75s17.625-17,25.5-6
		c7.125,5-2.125,17.625-2.125,17.625s2.875,5.857-4.625,5.429c1.75,4.821-3.875,4.821-3.75,4.946s1.25,2.25-2.125,2.875
		c-0.501,1.507,6.5,6.875-4.125,7.125c-5.625,6.375-8.75,19.25-8.75,19.25s-2.125,8.625,0.75,13.375s16.75,18.75,25.5,21.375
		c4.625-1.25,4.625-1.25,6.625,2.25c4.375,0,5.125,2.875,5.125,2.875s6.875-1.375,4.875,2.75c4.156,4,22.375,8.25,16.375,16.125
		s-9.125,6.75-19.375,5.75c-2.875,1.375-3.593,0.648-5-0.5c0,0-4.375,1.875-6.625-2c-2.125,2-4.25,0.5-4.25-0.625
		c-4.125,2.25-6.625-0.375-6.625-0.375s-5.5,1.25-6.125-1.875c-10.002-1.808-24.25-1.875-32.875,1.25S146.572,182.5,146.572,182.5
		s1,2.375-2.625,4.375c0.5,3.5-0.25,7-1.875,7c2.375,2.75-0.375,5.125-0.375,5.125s2.625,6.375-2.625,6.5
		c-4.375,3.75,2.25,23.25-15.75,21.375c-7.975-2.22-8.875-13.625-8.875-13.625s-4.125-3-1.375-5.125c-1.5-1.5-2-4.25-0.5-4.5
		c1.625-0.25-4.875-1.75-1-6.5c-2.375-2.875-0.25-5.25-0.25-5.25s-4.75,0.125-1.875-4.625c-3.25-3-3.625-5.75-1.5-6.625
		S104.697,158.25,91.572,155c-2.677-0.668-6.375-1.875-6.375-1.875s-2.625,1.625-5.875-0.25S78.537,156.75,73.43,152
		c-1.195-0.981-0.357,4.875-8.107-1.125c-3.25,3.25-5.25,0.375-5.25,0.375s-7.25,5.5-8.625-0.625c-3.875,2.125-4.125,1-4.125,1
		s-29.75,1.25-31.25-9.875c2.125-10.125,24.25-13.75,24.25-13.75s6.125-1.5,4.75-1.562c0,0,0.25-3.813,7.25-3.313
		c1.375-0.75,1.375-3.125,5.875-2.125s5.375-1.875,5.375-1.875s1.25-6.455,6.875-3.978C75.393,114.707,79.822,109.25,79.822,109.25z
		"/>
	<g>
		<g>
			<path style="fill:none;stroke:#000000;stroke-width:5;stroke-miterlimit:10;" d="M185.072,115.5"/>
		</g>
	</g>
	<g>
		<g>
			<path style="fill:none;stroke:#000000;stroke-width:5;stroke-miterlimit:10;" d="M96.572,157.5"/>
		</g>
	</g>
	<g>
		<g>
			<path style="fill:none;stroke:#000000;stroke-width:5;stroke-miterlimit:10;" d="M97.072,158"/>
		</g>
	</g>
	<g>
		<g>
			<path style="fill:none;stroke:#000000;stroke-width:5;stroke-miterlimit:10;" d="M83.072,106"/>
		</g>
	</g>
	<g>
		<g>
			<g>
				<path d="M157.072,92.5c0,0,0.05-0.163,0.137-0.448c0.113-0.279,0.148-0.707,0.43-1.165c0.407-0.994,1.411-2.188,2.903-2.77
					c1.484-0.6,3.231-0.343,4.376,0.208c0.556,0.309,1.033,0.584,1.302,0.863c0.288,0.261,0.453,0.409,0.453,0.409
					s0.071,0.084,0.168,0.271c0.098,0.183,0.24,0.451,0.422,0.793c0.135,0.357,0.268,0.812,0.385,1.321
					c0.021,0.518,0.147,1.115,0.017,1.721c-0.05,0.304-0.07,0.631-0.16,0.94c-0.104,0.302-0.212,0.613-0.323,0.935l-0.085,0.239
					l-0.022,0.061l-0.063,0.137l-0.004,0.006l-0.008,0.012l-0.015,0.023l-0.06,0.094l-0.241,0.384l-0.248,0.391
					c-0.081,0.132-0.255,0.302-0.383,0.449c-1.086,1.253-2.627,1.862-4.164,1.888c-1.526,0.025-2.983-0.502-4.063-1.345
					c-1.096-0.838-1.738-2.023-1.921-3.075c-0.105-1.069,0.072-1.933,0.302-2.482c0.233-0.547,0.366-0.859,0.366-0.859
					s-0.091,0.325-0.249,0.894c-0.155,0.561-0.202,1.415,0.014,2.352c0.293,0.921,0.982,1.85,1.997,2.433
					c1,0.591,2.277,0.851,3.446,0.67c0.584-0.08,1.135-0.284,1.602-0.57c0.463-0.283,0.87-0.676,1.094-1.03
					c0.066-0.102,0.141-0.14,0.206-0.282l0.193-0.421l0.19-0.411l0.047-0.102l0.012-0.025l0.006-0.012l0.003-0.007
					c-0.119,0.257-0.033,0.068-0.059,0.124l0.008-0.046l0.035-0.183c0.049-0.237,0.097-0.468,0.143-0.691
					c0.036-0.221,0.005-0.43,0.016-0.628c-0.007-1.619-0.914-2.211-0.844-2.229c-0.025,0.02-0.187-0.435-0.755-0.964
					c-0.566-0.496-1.618-1.014-2.782-0.881c-1.145,0.104-2.298,0.847-2.871,1.616c-0.367,0.334-0.526,0.764-0.704,0.996
					C157.162,92.355,157.072,92.5,157.072,92.5z"/>
			</g>
		</g>
	</g>
	<g>
		<g>
			<g>
				<path d="M168.572,80c0,0,0.225-0.229,0.563-0.574c0.364-0.326,0.896-0.779,1.58-1.07c0.669-0.317,1.568-0.433,2.276-0.247
					c0.699,0.182,1.113,0.479,1.113,0.479s0.167,0.179,0.393,0.517c0.216,0.338,0.459,0.84,0.581,1.43
					c0.254,1.178,0.199,2.692-0.65,4.032c-0.219,0.325-0.515,0.65-0.93,0.842c-0.399,0.211-0.896,0.215-1.245,0.078
					c-0.714-0.268-1.08-0.746-1.38-1.123c-0.28-0.397-0.481-0.734-0.602-0.982c-0.127-0.242-0.199-0.381-0.199-0.381
					s0.108,0.112,0.297,0.309c0.182,0.2,0.469,0.465,0.82,0.744c0.351,0.264,0.827,0.546,1.247,0.556
					c0.21,0.01,0.355-0.061,0.466-0.188c0.117-0.11,0.211-0.299,0.272-0.519c0.264-0.902-0.01-2.043-0.357-2.587
					c-0.165-0.294-0.343-0.452-0.458-0.539c-0.12-0.078-0.177-0.115-0.182-0.107c0,0-0.023-0.153-0.163-0.377
					c-0.136-0.213-0.512-0.464-1.055-0.54c-0.265-0.065-0.555-0.031-0.836-0.041c-0.27,0.033-0.536,0.057-0.771,0.101
					C168.885,79.925,168.572,80,168.572,80z"/>
			</g>
		</g>
	</g>
	<g>
		<g>
			<g>
				<path d="M170.072,81c0,0,0.004-0.09,0.01-0.225c0.004-0.067,0.007-0.146,0.011-0.23l0.006-0.13
					c0.007-0.006,0.019,0.018,0.028,0.025c0.064,0.06,0.02,0.059,0.016,0.078c-0.01,0.016-0.011,0.029-0.011,0.029
					c-0.016,0.027,0.035,0.042-0.088-0.031l-0.046-0.022c0.028,0.012,0.078,0.028,0.117,0.036c0.082,0.017,0.16,0.019,0.23,0.014
					c0.136-0.01,0.227-0.044,0.227-0.044s0.382,0.128,0.566,0.576c0.223,0.449-0.123,1.138-0.183,1.132c0,0-0.128-0.034-0.288-0.118
					c-0.162-0.082-0.352-0.223-0.366-0.404C170.187,81.343,170.072,81,170.072,81z"/>
			</g>
		</g>
	</g>
	<g>
		<g>
			<g>
				<path d="M180.072,71.5c0,0-0.151,0.16-0.379,0.4c-0.245,0.235-0.487,0.582-0.711,0.906c-0.225,0.345-0.403,0.689-0.503,0.952
					c-0.113,0.253-0.142,0.429-0.142,0.429s-0.071,0.038-0.195,0.104c-0.103,0.075-0.279,0.177-0.451,0.322
					c-0.36,0.286-0.749,0.738-0.843,1.34c-0.119,0.604,0.183,1.334,0.548,1.794c0.163,0.252,0.354,0.419,0.477,0.55
					c0.127,0.129,0.199,0.203,0.199,0.203s-0.097-0.036-0.266-0.101c-0.168-0.068-0.425-0.146-0.7-0.317
					c-0.56-0.291-1.343-0.905-1.662-1.934c-0.341-1.018-0.078-2.165,0.252-2.856c0.157-0.362,0.331-0.63,0.444-0.833
					c0.129-0.182,0.202-0.286,0.202-0.286c0,0,0.971-0.465,1.91-0.582c0.481-0.067,0.945-0.119,1.268-0.099
					C179.852,71.497,180.072,71.5,180.072,71.5z"/>
			</g>
		</g>
	</g>
	<g>
		<g>
			<g>
				<polygon points="179.572,77 178.154,76.5 179.572,75.5 180.99,76.5 				"/>
			</g>
		</g>
	</g>
	<g>
		<g>
			<g>
				<path d="M184.072,65c0,0,0.181-0.231,0.451-0.579c0.276-0.341,0.701-0.798,1.192-1.209c0.499-0.405,1.127-0.758,1.733-0.911
					c0.31-0.065,0.585-0.106,0.802-0.09c0.213,0.009,0.335,0.014,0.335,0.014s0.243,0.092,0.613,0.337
					c0.373,0.249,0.832,0.745,1.065,1.377c0.472,1.277,0.129,2.767-0.696,3.841c-0.414,0.538-0.972,0.967-1.559,1.178
					c-0.587,0.218-1.163,0.204-1.604,0.115c-0.445-0.099-0.776-0.253-0.995-0.376c-0.215-0.125-0.338-0.196-0.338-0.196
					s0.138,0.029,0.379,0.081c0.237,0.049,0.588,0.088,0.979,0.049c0.391-0.047,0.819-0.188,1.161-0.467
					c0.345-0.274,0.604-0.668,0.751-1.096c0.319-0.859,0.08-1.836-0.22-2.062c-0.274-0.21-0.36-0.027-0.368-0.07
					c-0.014,0.012-0.012-0.11-0.247-0.243c-0.232-0.125-0.704-0.211-1.234-0.177c-0.532,0.044-1.076,0.152-1.5,0.271
					C184.353,64.915,184.072,65,184.072,65z"/>
			</g>
		</g>
	</g>
	<g>
		<g>
			<g>
				<path d="M195.572,56.5c0,0,0.007,0.151,0.018,0.377c0.019,0.223,0.004,0.536,0.058,0.822c0.071,0.276,0.159,0.512,0.227,0.67
					c0.08,0.164,0.155,0.265,0.155,0.265c0.028,0.006-0.619,0.472-0.667,1.229c-0.038,0.379,0.126,0.825,0.325,1.13
					c0.23,0.305,0.385,0.508,0.385,0.508c0.045-0.046-1.115-0.004-2.012-1.075c-0.242-0.246-0.342-0.568-0.499-0.872
					c-0.119-0.305-0.155-0.599-0.212-0.868c-0.062-0.277-0.028-0.464-0.04-0.621c0.001-0.151,0.001-0.238,0.001-0.238
					s0.122-0.143,0.332-0.321c0.224-0.176,0.52-0.384,0.799-0.552c0.279-0.148,0.565-0.228,0.777-0.317
					C195.431,56.554,195.572,56.5,195.572,56.5z"/>
			</g>
		</g>
	</g>
	<g>
		<g>
			<path style="fill:none;stroke:#000000;stroke-width:5;stroke-miterlimit:10;" d="M198.072,60"/>
		</g>
	</g>
	<g>
		<g>
			<g>
				<path d="M202.572,49.5c0,0,0.313-0.006,0.781-0.016c0.477,0.043,1.172,0.061,1.869,0.502c0.351,0.211,0.685,0.573,0.884,1.02
					c0.101,0.216,0.138,0.447,0.187,0.671c0.027,0.215,0.018,0.411,0.016,0.604c-0.025,0.36-0.098,0.64-0.146,0.835
					c-0.061,0.18-0.095,0.282-0.095,0.282c-1.078,1.348-2.34,1.908-3.604,2.384l-0.835,0.314l-0.287-0.513
					c-0.268-0.48-0.533-0.967-0.704-1.558c-0.188-0.575-0.151-1.37,0.191-1.895c0.332-0.515,0.74-0.827,1.12-1.152
					c0.385-0.318,0.763-0.633,1.123-0.979c-0.444,0.867-1.183,1.71-1.417,2.501c-0.079,0.385,0.018,0.669,0.233,1
					c0.22,0.326,0.54,0.645,0.639,1.134c-0.282-0.14-0.564-0.279-0.803-0.332c0.45-0.353,0.862-0.737,1.211-1.143
					c0.334-0.408,0.606-0.855,0.697-1.216c0,0,0.042-0.026,0.116-0.071c0.058-0.042,0.14-0.103,0.238-0.175
					c0.165-0.141,0.388-0.274,0.233-0.71C203.856,50.102,202.512,49.506,202.572,49.5z"/>
			</g>
		</g>
	</g>
	<g>
		<g>
			<g>
				<path d="M168.072,138.5c0,0-0.042-0.13-0.115-0.356c-0.078-0.227-0.187-0.542-0.247-0.966c-0.152-0.836-0.208-1.992,0.059-3.156
					c0.245-1.159,0.8-2.323,1.544-3.089c0.343-0.394,0.768-0.657,1.044-0.841c0.321-0.146,0.506-0.23,0.506-0.23
					s0.098-0.022,0.282-0.065c0.186-0.034,0.477-0.027,0.833-0.025c0.364-0.025,0.761,0.141,1.22,0.259
					c0.217,0.081,0.413,0.209,0.634,0.326c0.219,0.12,0.445,0.249,0.62,0.423c0.187,0.165,0.381,0.338,0.582,0.516
					c0.184,0.186,0.33,0.396,0.501,0.601l0.25,0.316c0.057,0.074,0.052,0.058,0.158,0.209l0.093,0.155
					c0.124,0.21,0.251,0.425,0.38,0.643c0.64,1.275,0.658,2.602,0.242,3.804c-0.421,1.182-1.253,2.149-2.24,2.696
					c-0.984,0.56-2.146,0.613-2.946,0.24c-0.783-0.39-1.258-0.923-1.509-1.323c-0.248-0.404-0.39-0.635-0.39-0.635
					s0.176,0.202,0.484,0.558c0.3,0.347,0.848,0.764,1.557,0.981c0.726,0.196,1.613-0.01,2.313-0.572
					c0.704-0.555,1.215-1.435,1.365-2.324c0.18-0.873-0.116-1.819-0.461-2.309c-0.162-0.193-0.321-0.383-0.478-0.568l-0.117-0.139
					c0.036,0.054-0.058-0.044-0.079-0.059l-0.226-0.2c-0.149-0.126-0.284-0.271-0.427-0.37c-0.143-0.088-0.281-0.172-0.414-0.252
					c-0.127-0.1-0.254-0.13-0.368-0.164c-0.114-0.031-0.22-0.091-0.314-0.104c-0.185,0.025-0.336-0.062-0.447,0.005
					c-0.11,0.039-0.194,0.029-0.252,0.059c-0.056,0.033-0.085,0.051-0.085,0.051s-0.072-0.002-0.198-0.006
					c-0.067-0.004-0.147,0.041-0.248,0.063c-0.1,0.026-0.223,0.046-0.347,0.132c-0.523,0.235-1.229,0.89-1.736,1.744
					c-0.528,0.843-0.828,1.864-0.941,2.631c-0.076,0.384-0.077,0.732-0.075,0.97C168.074,138.364,168.072,138.5,168.072,138.5z"/>
			</g>
		</g>
	</g>
	<g>
		<g>
			<path style="fill:none;stroke:#000000;stroke-width:5;stroke-miterlimit:10;" d="M169.572,137"/>
		</g>
	</g>
	<g>
		<g>
			<g>
				<path d="M187.072,134.5c0,0,0.528,0.304,1.219,0.93c0.694,0.616,1.54,1.539,2.254,2.6c0.713,1.058,1.309,2.254,1.502,3.387
					c0.096,0.563,0.098,1.099,0.021,1.502c-0.07,0.399-0.166,0.641-0.166,0.641c-0.295,0.564-0.793,1.063-1.332,1.354
					c-0.546,0.311-1.084,0.4-1.581,0.457c-0.986,0.069-1.829-0.101-2.651-0.196c0.042-0.031,0.084-0.063,0.123-0.057
					c-1.578-0.244-2.858-1.237-3.651-2.37c-0.809-1.145-1.246-2.462-1.343-3.794c-0.093-1.313,0.191-2.748,1.117-3.74
					c0.918-1.009,2.282-1.286,3.488-1.212c-1.221,0.104-2.426,0.595-3.056,1.555c-0.646,0.939-0.699,2.158-0.456,3.247
					c0.245,1.097,0.787,2.131,1.531,2.896c0.74,0.771,1.684,1.233,2.588,1.222l0.082,0.134c0.685,0.056,1.367,0.043,1.884-0.103
					c0.243-0.082,0.459-0.175,0.548-0.291c0.101-0.11,0.124-0.195,0.146-0.314c-0.022-0.012,0.21-0.094,0.318-0.793
					c0.11-0.676-0.043-1.807-0.388-2.9c-0.337-1.103-0.852-2.18-1.319-2.938C187.492,134.947,187.072,134.5,187.072,134.5z"/>
			</g>
		</g>
	</g>
	<g>
		<g>
			<g>
				<path d="M195.572,144.5c0.02,0.006,0.185-0.344,0.623-0.809c0.418-0.459,1.156-1.047,2.208-1.147
					c1.044-0.098,2.133,0.438,2.703,1.035c0.601,0.588,0.843,1.137,0.843,1.137c0.189,0.79,0.185,1.643-0.114,2.42
					c-0.286,0.778-0.846,1.43-1.476,1.828c-1.288,0.794-2.613,0.801-3.787,0.702l-0.544-0.046l-0.099-0.234
					c-0.411-0.975-0.755-2.041-0.662-3.136c0.086-1.103,0.661-2.018,1.305-2.75c-0.46,0.873-0.751,1.839-0.597,2.731
					c0.139,0.894,0.626,1.688,0.978,2.54c-0.127-0.146-0.254-0.292-0.381-0.363c1.025-0.139,2.027-0.489,2.536-1.064
					c0.499-0.564,0.465-1.206,0.148-1.735c0,0,0.036-0.226-0.062-0.59c-0.093-0.365-0.379-0.821-0.917-1.063
					c-0.539-0.234-1.305-0.128-1.828,0.097C195.917,144.255,195.574,144.521,195.572,144.5z"/>
			</g>
		</g>
	</g>
	<g>
		<g>
			<g>
				<path d="M206.572,147.5c0,0,0.14-0.391,0.35-0.977c0.229-0.58,0.563-1.378,1.115-2.131c0.285-0.373,0.627-0.765,1.177-1.029
					c0.142-0.063,0.284-0.123,0.429-0.175c0.168-0.026,0.341-0.045,0.512-0.052c0.341-0.039,0.661,0.101,0.958,0.189
					c0.24,0.127,0.471,0.271,0.647,0.405c0.146,0.132,0.272,0.256,0.375,0.36c0.208,0.211,0.26,0.32,0.271,0.323
					c-0.016-0.006,0.158,0.281,0.263,0.718c0.144,0.45,0.222,1.05,0.261,1.749c0.021,0.696-0.029,1.486-0.186,2.315
					c-0.166,0.827-0.409,1.707-0.957,2.541c-0.116,0.208-0.327,0.407-0.501,0.594c-0.236,0.171-0.45,0.351-0.76,0.421
					c-0.28,0.115-0.591,0.064-0.856,0.035c-0.237-0.094-0.506-0.157-0.67-0.304c-0.753-0.508-1.137-1.144-1.479-1.665
					c-0.325-0.533-0.56-0.986-0.705-1.314c-0.155-0.321-0.244-0.505-0.244-0.505s0.126,0.16,0.347,0.44
					c0.211,0.285,0.537,0.675,0.952,1.106c0.413,0.416,0.943,0.921,1.539,1.139c0.146,0.088,0.282,0.052,0.41,0.09
					c0.115-0.037,0.225-0.019,0.302-0.103c0.168-0.092,0.32-0.327,0.429-0.628c0.441-1.241,0.26-2.86,0.007-3.851
					c-0.146-0.5-0.292-0.896-0.427-1.1c-0.116-0.239-0.203-0.277-0.197-0.293c0.013,0.012-0.057-0.284-0.031-0.411
					c0.007,0.014,0.044-0.081,0.028-0.088c-0.004-0.014-0.01-0.037-0.024-0.07c-0.031-0.004-0.067-0.009-0.109-0.021
					c-0.175-0.041-0.502,0.064-0.811,0.233c-0.639,0.348-1.247,0.886-1.689,1.313C206.862,147.204,206.572,147.5,206.572,147.5z"/>
			</g>
		</g>
	</g>
	<g>
		<g>
			<path style="fill:none;stroke:#000000;stroke-width:5;stroke-miterlimit:10;" d="M206.572,146"/>
		</g>
	</g>
	<g>
		<g>
			<g>
				<path d="M218.072,154c0,0,0.054-0.096,0.147-0.264c0.088-0.172,0.229-0.404,0.423-0.688c0.382-0.559,0.958-1.271,1.689-1.888
					c0.722-0.618,1.619-1.136,2.472-1.337c0.417-0.104,0.815-0.137,1.099-0.123c0.291,0.023,0.457,0.037,0.457,0.037
					c1.126,0.359,1.942,1.349,2.279,2.229l0.104,0.199c0.159,0.73,0.048,1.499-0.224,2.108c-0.27,0.616-0.668,1.103-1.105,1.495
					c-0.883,0.773-1.938,1.244-3.076,1.336c-0.567,0.035-1.174-0.052-1.699-0.339c-0.533-0.279-0.916-0.775-1.094-1.285
					c-0.362-1.033-0.183-2.044,0.027-2.981c-0.023,0.957,0.049,1.975,0.516,2.72c0.453,0.768,1.3,0.918,2.066,0.694
					c0.774-0.227,1.492-0.76,1.943-1.383c0.47-0.634,0.56-1.318,0.71-1.813c-0.101,0.104-0.201,0.21-0.184,0.255
					c-0.359-0.423-0.713-0.557-1.039-0.509c-0.008,0.011-0.129-0.156-0.578-0.257c-0.44-0.106-1.206-0.055-1.977,0.186
					c-0.771,0.23-1.535,0.624-2.075,0.969c-0.268,0.17-0.495,0.33-0.644,0.453C218.159,153.933,218.072,154,218.072,154z"/>
			</g>
		</g>
	</g>
	<g>
		<g>
			<g>
				<polygon points="231.572,157 232.072,155.582 233.072,157 232.072,158.418 				"/>
			</g>
		</g>
	</g>
	<g>
		<g>
			<g>
				<path d="M235.072,157.5c0,0,0.102,0.243,0.255,0.608c0.164,0.364,0.415,0.767,0.638,1.327c0.233,0.55,0.246,1.422,0.006,1.978
					c-0.092,0.316-0.209,0.486-0.285,0.627c-0.082,0.139-0.128,0.218-0.128,0.218c-0.118,0.091-0.238,0.188-0.355,0.265
					l-0.341,0.174l-0.674,0.329l-1.363,0.667l-0.344-1.146c-0.71-2.372-0.812-4.925,0.092-7.046c-0.1,2.27,0.848,4.345,1.713,6.144
					c-0.442-0.224-0.886-0.446-1.26-0.556l0.319-0.438l0.151-0.208c0.031-0.069,0.043-0.136,0.064-0.197
					c0,0,0.041-0.009,0.113-0.025c0.071-0.017,0.203-0.045,0.268-0.073c0.203-0.052,0.449-0.187,0.608-0.628
					c0.145-0.429,0.233-1.009,0.335-1.387C234.997,157.752,235.072,157.5,235.072,157.5z"/>
			</g>
		</g>
	</g>
	<g>
		<g>
			<g>
				<path d="M125.572,173c0,0,0.104-0.039,0.284-0.108c0.181-0.072,0.435-0.169,0.771-0.258c0.654-0.16,1.611-0.396,2.692,0.022
					c0.529,0.207,1.034,0.621,1.354,1.11c0.324,0.485,0.501,1.009,0.579,1.438c0.087,0.437,0.098,0.795,0.101,1.047
					c-0.009,0.249-0.014,0.391-0.014,0.391s-0.076,0.274-0.268,0.712c-0.192,0.438-0.511,1.031-1.044,1.647
					c-0.531,0.585-1.279,1.334-2.574,1.507c-0.314,0.034-0.666,0.005-0.98-0.103l-0.12-0.037l-0.06-0.021l-0.143-0.062l-0.004-0.003
					l-0.009-0.005l-0.017-0.012l-0.132-0.088c-0.094-0.065-0.166-0.105-0.277-0.191c-0.569-0.451-0.849-0.943-1.028-1.456
					c-0.333-1.026-0.229-1.979-0.098-2.818c0.146-0.842,0.381-1.585,0.604-2.208c0.458-1.244,0.882-2.006,0.882-2.006
					s-0.262,0.838-0.453,2.114c-0.091,0.638-0.164,1.386-0.139,2.165c0.027,0.768,0.151,1.607,0.504,2.188
					c0.158,0.289,0.436,0.488,0.548,0.553c0.063,0.035,0.188,0.079,0.278,0.118l0.147,0.06l0.019,0.008l0.009,0.004l0.005,0.001
					c0.031,0.014-0.258-0.11-0.135-0.058l0.018-0.002l0.034-0.003c0.086,0.004,0.161-0.016,0.244-0.054
					c0.329-0.131,0.729-0.573,0.949-1.01c0.236-0.435,0.355-0.848,0.409-1.125c0.055-0.279,0.061-0.433,0.061-0.433
					s0.183-0.283,0.291-0.712c0.109-0.434,0.16-0.968-0.271-1.442c-0.433-0.49-1.309-0.714-1.926-0.797
					c-0.314-0.048-0.596-0.06-0.788-0.063C125.683,173.005,125.572,173,125.572,173z"/>
			</g>
		</g>
	</g>
	<g>
		<g>
			<g>
				<path d="M124.072,186.5c0,0,0.067-0.076,0.185-0.208c0.113-0.138,0.28-0.32,0.522-0.531c0.471-0.421,1.168-0.927,2.052-1.229
					c0.854-0.308,2.01-0.384,2.902,0.166c0.443,0.254,0.726,0.59,0.918,0.833c0.172,0.242,0.239,0.395,0.239,0.395
					s0.138,0.337,0.146,0.849c0.051,0.53-0.063,1.183-0.274,1.864c-0.118,0.394-0.232,0.608-0.36,0.952
					c-0.182,0.358-0.396,0.832-0.681,1.181c-0.518,0.737-1.379,1.411-2.388,1.604c-1.011,0.209-2.063-0.184-2.652-0.83
					c-0.602-0.645-0.843-1.42-0.861-2.043c-0.064-1.258,0.295-1.997,0.252-2.003c0.038-0.009-0.131,0.826,0.183,1.92
					c0.134,0.544,0.504,1.111,1.012,1.445c0.51,0.339,1.163,0.393,1.683,0.146c0.521-0.247,0.913-0.718,1.124-1.261
					c0.126-0.265,0.148-0.48,0.23-0.741c0.042-0.313,0.128-0.711,0.125-0.897c0.063-1-0.206-1.198-0.188-1.175
					c-0.009-0.011,0.081-0.141,0.022-0.351c-0.025-0.24-0.542-0.582-1.241-0.65c-0.687-0.09-1.466,0.039-2.018,0.205
					c-0.278,0.077-0.517,0.173-0.677,0.249C124.165,186.46,124.072,186.5,124.072,186.5z"/>
			</g>
		</g>
	</g>
	<g>
		<g>
			<path style="fill:none;stroke:#000000;stroke-width:5;stroke-miterlimit:10;" d="M125.072,185.5"/>
		</g>
	</g>
	<g>
		<g>
			<path style="fill:none;stroke:#000000;stroke-width:5;stroke-miterlimit:10;" d="M122.072,199.5"/>
		</g>
	</g>
	<g>
		<g>
			<path style="fill:none;stroke:#000000;stroke-width:5;stroke-miterlimit:10;" d="M122.072,199"/>
		</g>
	</g>
	<g>
		<g>
			<path style="fill:none;stroke:#000000;stroke-width:5;stroke-miterlimit:10;" d="M123.072,199"/>
		</g>
	</g>
	<g>
		<g>
			<path style="fill:none;stroke:#000000;stroke-width:5;stroke-miterlimit:10;" d="M124.572,198.5"/>
		</g>
	</g>
	<g>
		<g>
			<g>
				<path d="M126.072,198.5c0,0,0.263,0.137,0.657,0.342c0.381,0.254,0.936,0.58,1.362,1.178c0.216,0.296,0.392,0.671,0.479,1.093
					c0.063,0.431,0.02,0.884-0.109,1.245c-0.125,0.366-0.293,0.626-0.417,0.804c-0.124,0.182-0.205,0.259-0.205,0.259
					s-0.815,0.566-1.943,0.622c-0.563,0.04-1.203-0.009-1.861-0.229c-0.643-0.222-1.372-0.63-1.777-1.368
					c-0.408-0.748-0.293-1.565-0.056-2.107c0.229-0.567,0.558-0.983,0.841-1.321c0.294-0.331,0.548-0.585,0.74-0.75
					c0.185-0.169,0.29-0.266,0.29-0.266s-0.07,0.124-0.194,0.342c-0.131,0.211-0.293,0.527-0.46,0.909
					c-0.158,0.382-0.319,0.843-0.348,1.305c-0.045,0.467,0.1,0.881,0.349,1.077c0.506,0.415,1.509,0.313,2.025,0.06
					c0.561-0.255,0.625-0.506,0.624-0.487c0,0,0.14,0.018,0.295,0.003c0.158,0.01,0.417-0.173,0.413-0.66
					c0.018-0.469-0.203-1-0.359-1.393C126.21,198.762,126.072,198.5,126.072,198.5z"/>
			</g>
		</g>
	</g>
	<g>
		<g>
			<g>
				<path d="M124.572,213c0,0,0.079-0.057,0.217-0.155c0.14-0.1,0.327-0.244,0.601-0.387c0.271-0.153,0.593-0.313,1.009-0.4
					c0.401-0.097,0.933-0.124,1.459,0.129c0.529,0.239,0.935,0.729,1.157,1.193c0.238,0.475,0.31,0.914,0.373,1.297
					c0.087,0.751,0.024,1.236,0.024,1.236c-0.643,1.668-1.777,2.993-3.266,3.796c-1.485,0.824-3.313,0.82-4.698,0.194l-0.372-0.168
					l-0.009-0.067c-0.091-0.639-0.179-1.267-0.117-1.916c-0.001-0.315,0.138-0.633,0.2-0.932c0.107-0.293,0.287-0.557,0.422-0.82
					c-0.438,1.168-0.081,2.328,0.267,3.411c-0.047-0.104-0.095-0.21-0.156-0.27c1.329,0.231,2.594-0.142,3.458-0.944
					c0.876-0.78,1.422-1.958,1.53-3.01c0,0,0.168-0.242,0.327-0.624c0.143-0.386,0.267-0.857,0.069-1.2
					c-0.197-0.409-1.022-0.517-1.546-0.482c-0.274,0.003-0.52,0.049-0.686,0.077C124.668,212.984,124.572,213,124.572,213z"/>
			</g>
		</g>
	</g>
	<g>
		<g>
			<g>
				<path d="M123.572,213c0,0,0.125-0.357,0.25-0.714c0.176-0.354,0.098-0.731,0.113-0.725c0,0,0.021,0.085,0.083,0.215
					c0.059,0.125,0.141,0.265,0.295,0.405c0.282,0.249,0.759,0.318,0.759,0.318s0.012,0.102,0.006,0.275
					c-0.012,0.165-0.023,0.437-0.127,0.673c-0.102,0.232-0.265,0.498-0.405,0.662c-0.139,0.159-0.253,0.264-0.253,0.264
					s-0.068-0.08-0.17-0.201c-0.108-0.119-0.193-0.292-0.257-0.47C123.719,213.352,123.572,213,123.572,213z"/>
			</g>
		</g>
	</g>
	<g>
		<g>
			<g>
				<path d="M92.072,127.5c0,0-0.104,0.001-0.287,0.003c-0.181,0.003-0.451-0.008-0.743,0.05c-0.583,0.072-1.343,0.317-1.904,0.757
					c-0.575,0.427-0.964,0.997-1.188,1.441c-0.218,0.453-0.301,0.771-0.301,0.771c0.001,0.001-0.101,0.122-0.271,0.354
					c-0.165,0.234-0.384,0.593-0.58,1.068c-0.406,0.933-0.663,2.412-0.184,3.748c0.445,1.348,1.788,2.299,2.956,2.548
					c0.286,0.089,0.558,0.134,0.802,0.165c0.243,0.044,0.458,0.064,0.637,0.066c0.357,0.018,0.563,0.027,0.563,0.027
					s-0.203,0.034-0.558,0.095c-0.179,0.036-0.396,0.063-0.651,0.073c-0.254,0.022-0.543,0.037-0.86,0.012
					c-0.634-0.022-1.4-0.154-2.159-0.537c-0.76-0.369-1.488-1.007-1.992-1.805c-1.023-1.616-1.123-3.618-0.863-5.012
					c0.12-0.708,0.314-1.29,0.478-1.689c0.167-0.398,0.283-0.621,0.282-0.622c0,0,0.331-0.391,0.921-0.86
					c0.591-0.465,1.483-0.967,2.43-1.156c0.948-0.208,1.864-0.083,2.493,0.114c0.322,0.081,0.548,0.198,0.718,0.271
					C91.977,127.458,92.072,127.5,92.072,127.5z"/>
			</g>
		</g>
	</g>
	<g>
		<g>
			<g>
				<path d="M94.072,136.5c0,0-1.004-2.114-1.066-2.043c0,0,0.464-0.718,0.833-1.636c0.389-0.889,0.733-1.821,0.733-1.821
					s0.365,0.914,0.684,1.87c0.346,0.932,0.549,2.044,0.549,2.043C95.839,135,94.072,136.5,94.072,136.5z"/>
			</g>
		</g>
	</g>
	<g>
		<g>
			<g>
				<path d="M66.572,131.5c0,0,0.463-0.256,1.157-0.64c0.343-0.199,0.756-0.407,1.215-0.623c0.453-0.226,0.946-0.457,1.458-0.649
					c1.002-0.437,2.116-0.719,3.047-0.837c0.498-0.004,0.89-0.061,1.235,0.028c0.331,0.065,0.521,0.103,0.521,0.103
					c0.002,0.007,0.083,0.017,0.264,0.14c0.174,0.123,0.438,0.257,0.725,0.549c0.141,0.159,0.289,0.344,0.433,0.55
					c0.126,0.213,0.215,0.475,0.308,0.742c0.084,0.269,0.078,0.534,0.103,0.822c0.006,0.279-0.054,0.527-0.092,0.805
					c-0.236,1.039-0.786,1.943-1.456,2.786c-0.676,0.839-1.495,1.607-2.406,2.253c-0.912,0.636-1.919,1.173-2.99,1.374
					c-0.539,0.073-1.087,0.109-1.581-0.071c-0.501-0.131-0.892-0.469-1.152-0.797c-0.505-0.69-0.636-1.366-0.703-1.817
					c-0.053-0.456-0.083-0.717-0.083-0.717s0.073,0.25,0.201,0.688c0.134,0.423,0.393,1.049,0.909,1.544
					c0.523,0.506,1.362,0.611,2.183,0.302c0.825-0.305,1.621-0.912,2.311-1.597c1.372-1.351,2.393-3.236,2.404-4.313
					c-0.02-0.111-0.001-0.238-0.028-0.313c-0.04-0.061-0.034-0.145-0.07-0.17c-0.042-0.019-0.043-0.048-0.065-0.062
					c-0.037-0.001-0.055-0.006-0.064-0.019c-0.125-0.02-0.199-0.067-0.223-0.057c-0.014,0.013-0.165-0.185-0.79-0.365
					c-0.629-0.135-1.608-0.248-2.63-0.169c-0.512,0.011-1.021,0.063-1.503,0.124c-0.482,0.049-0.94,0.108-1.331,0.184
					C67.094,131.412,66.572,131.5,66.572,131.5z"/>
			</g>
		</g>
	</g>
	<g>
		<g>
			<g>
				<polygon points="67.072,133.5 65.654,133.167 67.072,132.5 68.49,133.167 				"/>
			</g>
		</g>
	</g>
	<g>
		<g>
			<g>
				<path d="M51.572,135c0,0,0.015-0.141,0.04-0.386c0.016-0.247,0.06-0.589,0.184-1.025c0.117-0.431,0.327-0.927,0.739-1.403
					c0.409-0.483,1.138-0.808,1.854-0.834c1.462-0.046,2.662,0.686,3.438,1.257c0.791,0.593,1.219,1.115,1.219,1.115
					c0.572,0.991,1.019,2.074,1.081,3.316c0.042,0.612-0.046,1.268-0.268,1.888c-0.253,0.608-0.633,1.191-1.139,1.572
					c-0.992,0.807-2.126,1.036-3.154,1.13c-1.047,0.104-2.046-0.016-3.029-0.133l-0.431-0.051l-0.071-0.178
					c-0.437-1.082-0.512-2.286-0.252-3.353c0.248-1.074,0.738-2.027,1.289-2.916c-0.39,0.969-0.693,1.98-0.744,2.987
					c-0.063,1.008,0.188,1.979,0.541,2.864c-0.087-0.116-0.174-0.232-0.266-0.294c0.938-0.042,1.88-0.089,2.739-0.325
					c0.854-0.211,1.653-0.582,2.085-1.108c0.885-0.971,0.299-2.605-0.718-3.792c0,0-0.16-0.437-0.561-1.018
					c-0.386-0.575-1.069-1.309-1.859-1.549c-0.387-0.115-0.808-0.109-1.183,0.11c-0.368,0.217-0.692,0.561-0.906,0.893
					c-0.224,0.325-0.382,0.648-0.471,0.878C51.63,134.871,51.572,135,51.572,135z"/>
			</g>
		</g>
	</g>
	<g>
		<g>
			<g>
				<path d="M36.572,137c0,0-0.022,0.291-0.056,0.729c-0.001,0.419,0.035,0.976,0.199,1.437c0.161,0.466,0.451,0.764,0.67,0.861
					c0.223,0.102,0.358,0.086,0.354,0.095c0.014-0.014,0.053,0.233,0.499,0.468c0.43,0.231,1.31,0.272,1.988-0.274
					c0.334-0.267,0.597-0.669,0.755-1.111c0.147-0.445,0.208-0.912,0.214-1.32c0-0.407-0.025-0.759-0.067-0.999
					c-0.036-0.244-0.057-0.384-0.057-0.384s0.063,0.127,0.173,0.349c0.117,0.222,0.253,0.552,0.39,0.97
					c0.129,0.42,0.234,0.937,0.232,1.53c-0.014,0.589-0.166,1.262-0.541,1.862c-0.752,1.236-2.322,1.854-3.518,1.731
					c-0.604-0.043-1.117-0.23-1.46-0.404c-0.338-0.187-0.522-0.325-0.522-0.325s-0.063-0.097-0.173-0.266
					c-0.112-0.162-0.229-0.424-0.341-0.727c-0.22-0.619-0.222-1.44-0.014-2.094c0.199-0.66,0.542-1.188,0.806-1.562
					C36.385,137.227,36.572,137,36.572,137z"/>
			</g>
		</g>
	</g>
	<g>
		<g>
			<g>
				<path d="M27.572,140c0,0-1.123,1.313-1.209,1.267c0,0-0.141-0.121-0.352-0.304c-0.232-0.189-0.368-0.402-0.579-0.633
					c-0.203-0.241-0.389-0.422-0.562-0.576c-0.18-0.152-0.299-0.254-0.299-0.254s0.133-0.075,0.333-0.188
					c0.204-0.11,0.529-0.267,0.816-0.369c0.284-0.117,0.644-0.216,0.782-0.32c0.16-0.097,0.268-0.162,0.268-0.162
					C26.674,138.484,27.572,140,27.572,140z"/>
			</g>
		</g>
	</g>
	<g>
		<g>
			<g>
				<path d="M23.572,141.5c0,0,0.138,0.028,0.344,0.071c0.2,0.028,0.495,0.144,0.739,0.076c0.457-0.062,0.823-0.304,0.823-0.304
					s0.016,0.035,0.044,0.097c0.031,0.059,0.084,0.113,0.155,0.207c0.071,0.104,0.168,0.196,0.294,0.27
					c0.067,0.046,0.138,0.093,0.209,0.142l0.242,0.078c0.087,0.026,0.181,0.058,0.276,0.079c0.095,0.001,0.188,0.002,0.279,0.003
					c0.191,0.003,0.391,0.002,0.54-0.056c0.332-0.098,0.554-0.163,0.554-0.163c-0.02-0.039-0.317,0.928-1.357,1.524
					c-1.016,0.63-2.487,0.42-2.443,0.385c0,0-0.447-0.586-0.622-1.263c-0.119-0.318-0.062-0.578-0.077-0.795
					C23.572,141.641,23.572,141.5,23.572,141.5z"/>
			</g>
		</g>
	</g>
	<g>
		<g>
			<g>
				<polygon points="29.072,139.5 28.236,138.331 29.572,139 30.241,140.336 				"/>
			</g>
		</g>
	</g>
	<g>
		<g>
			<path style="fill:none;stroke:#000000;stroke-width:5;stroke-miterlimit:10;" d="M26.572,138"/>
		</g>
	</g>
	<g>
		<g>
			<g>
				<path d="M111.572,86c0,0,0.109-0.067,0.302-0.186c0.198-0.113,0.455-0.3,0.811-0.476c0.349-0.191,0.765-0.396,1.269-0.561
					c0.256-0.078,0.533-0.149,0.88-0.148c0.158-0.018,0.389,0.059,0.584,0.111c0.21,0.122,0.464,0.274,0.579,0.526
					c0.162,0.258,0.179,0.474,0.21,0.711c0.009,0.208-0.012,0.396-0.036,0.58c-0.064,0.34-0.163,0.639-0.27,0.912
					c-0.225,0.531-0.48,0.988-0.729,1.355c-0.494,0.737-0.926,1.178-0.926,1.178c-0.672,0.444-1.383,0.862-2.395,1.038
					c-0.48,0.089-1.167,0.067-1.764-0.283c-0.315-0.171-0.533-0.404-0.719-0.657c-0.192-0.249-0.256-0.488-0.368-0.736
					c-0.275-0.943-0.163-1.686-0.095-2.429c0.112-0.721,0.28-1.405,0.464-2.077l0.148-0.541l0.303-0.071
					c1.433-0.336,3.118-0.377,4.431,0.499c1.318,0.889,1.758,2.415,1.82,3.754c-0.301-1.325-1.028-2.611-2.186-3.093
					c-1.143-0.49-2.448-0.224-3.663,0.046c0.184-0.104,0.367-0.208,0.473-0.328c-0.054,0.651-0.089,1.296-0.07,1.918
					c0.044,0.594,0.123,1.229,0.327,1.565c0.111,0.132,0.183,0.198,0.19,0.13c0.003-0.032,0.04-0.032,0.206-0.109
					c0.305-0.128,0.756-0.456,1.128-0.842c0,0,0.382-0.178,0.918-0.563c0.27-0.192,0.557-0.444,0.829-0.727
					c0.275-0.252,0.44-0.684,0.498-0.607c0.05-0.007,0.048,0.021,0.076-0.021c-0.047-0.014-0.043-0.077-0.137-0.098
					c-0.153-0.065-0.364-0.094-0.582-0.104c-0.438-0.015-0.877,0.031-1.247,0.091c-0.376,0.041-0.693,0.132-0.914,0.171
					C111.698,85.974,111.572,86,111.572,86z"/>
			</g>
		</g>
	</g>
	<g>
		<g>
			<g>
				<path d="M106.072,78c0.022-0.001-0.005-0.401,0.16-1.012c0.151-0.645,0.61-1.469,1.432-2.045
					c0.802-0.587,1.897-0.803,2.719-0.705c0.417,0.019,0.753,0.146,1,0.2c0.233,0.087,0.365,0.152,0.365,0.152
					c-0.013,0.014,0.262,0.142,0.586,0.523c0.165,0.187,0.378,0.4,0.537,0.7c0.084,0.146,0.173,0.299,0.267,0.462
					c0.063,0.171,0.129,0.351,0.198,0.538c0.159,0.371,0.172,0.786,0.248,1.209c-0.018,0.434,0.037,0.825-0.067,1.325
					c-0.05,0.206-0.042,0.32-0.14,0.609c-0.09,0.254-0.159,0.527-0.292,0.75c-0.247,0.449-0.587,0.874-1.021,1.155
					c-0.866,0.588-1.865,0.65-2.667,0.51c-0.815-0.142-1.493-0.481-2.001-0.844c-0.521-0.352-0.84-0.77-1.052-1.048
					c-0.173-0.307-0.271-0.481-0.271-0.481s0.133,0.146,0.365,0.402c0.263,0.221,0.64,0.534,1.176,0.741
					c0.521,0.219,1.176,0.371,1.847,0.335c0.667-0.029,1.334-0.284,1.703-0.711c0.196-0.202,0.3-0.461,0.374-0.719
					c0.043-0.125,0.021-0.245,0.047-0.354c0.014-0.04,0.016-0.123,0.01-0.229l-0.009-0.282c0.006-0.24-0.115-0.564-0.15-0.81
					c-0.12-0.227-0.161-0.473-0.301-0.624c-0.054-0.083-0.105-0.162-0.154-0.237c-0.063-0.059-0.121-0.115-0.177-0.167
					c-0.093-0.118-0.215-0.168-0.295-0.226c-0.156-0.124-0.286-0.121-0.276-0.135c0,0-0.035-0.051-0.096-0.138
					c-0.08-0.054-0.176-0.199-0.345-0.293c-0.313-0.231-0.894-0.431-1.532-0.325c-0.632,0.083-1.285,0.51-1.624,0.943
					C106.251,77.615,106.087,78.018,106.072,78z"/>
			</g>
		</g>
	</g>
	<g>
		<g>
			<path style="fill:none;stroke:#000000;stroke-width:5;stroke-miterlimit:10;" d="M106.072,77.5"/>
		</g>
	</g>
	<g>
		<g>
			<g>
				<path d="M99.072,68.5c0,0-0.413-0.05-0.827-0.131c-0.21-0.065-0.427-0.159-0.591-0.243c-0.158-0.085-0.263-0.142-0.263-0.142
					c0,0,0.18-0.721,0.623-1.285c0.213-0.284,0.491-0.494,0.699-0.594C98.943,66.014,99.072,66,99.072,66s-0.012,0.158,0.022,0.333
					c0.048,0.191,0.166,0.396,0.325,0.554c0.314,0.322,0.736,0.47,0.736,0.47c0,0-0.322,0.171-0.604,0.463
					C99.301,68.147,99.072,68.5,99.072,68.5z"/>
			</g>
		</g>
	</g>
	<g>
		<g>
			<path style="fill:none;stroke:#000000;stroke-width:5;stroke-miterlimit:10;" d="M101.072,64.5"/>
		</g>
	</g>
	<g>
		<g>
			<g>
				<polygon points="103.072,64.5 103.239,63.082 103.572,64.5 103.239,65.918 				"/>
			</g>
		</g>
	</g>
	<g>
		<g>
			<g>
				<path d="M105.072,65.5c0,0,0.28,0.261,0.7,0.652c0.401,0.422,0.953,1.02,1.351,1.774c0.42,0.738,0.673,1.695,0.596,2.514
					c-0.052,0.403-0.122,0.751-0.224,0.983c-0.086,0.237-0.147,0.371-0.147,0.371s-0.181,0.234-0.55,0.553
					c-0.372,0.318-0.964,0.665-1.686,0.856c-1.416,0.384-3.417,0.125-4.736-1.236c-0.643-0.682-0.947-1.622-0.905-2.414
					c0.037-0.798,0.285-1.46,0.55-1.976c0.271-0.514,0.532-0.909,0.739-1.167c0.199-0.261,0.313-0.411,0.313-0.411
					s-0.075,0.171-0.207,0.472c-0.139,0.293-0.296,0.734-0.429,1.259c-0.131,0.525-0.19,1.158-0.071,1.755
					c0.121,0.6,0.473,1.11,0.95,1.419c0.99,0.627,2.353,0.445,2.985,0.046c0.667-0.404,0.685-0.785,0.711-0.766
					c-0.007-0.009,0.168-0.068,0.389-0.336c0.21-0.267,0.392-0.841,0.363-1.522c-0.005-0.685-0.198-1.393-0.36-1.932
					C105.205,65.859,105.072,65.5,105.072,65.5z"/>
			</g>
		</g>
	</g>
	<g>
		<g>
			<g>
				<path d="M98.572,54c0,0-0.34-0.016-0.842-0.001c-0.482,0.029-1.121,0.132-1.652,0.362c-0.535,0.228-0.922,0.576-1.106,0.867
					c-0.19,0.289-0.244,0.49-0.244,0.49c-0.004-0.004-0.082,0.05-0.219,0.167c-0.132,0.118-0.324,0.309-0.485,0.615
					c-0.343,0.583-0.538,1.683-0.07,2.655c0.438,0.979,1.572,1.619,2.51,1.752c0.465,0.092,0.875,0.111,1.158,0.103
					C97.908,61.003,98.072,61,98.072,61s-0.158,0.047-0.435,0.129c-0.277,0.085-0.686,0.18-1.196,0.219
					c-0.989,0.125-2.58-0.157-3.65-1.381c-1.07-1.192-1.334-2.952-1.046-4.198c0.124-0.633,0.371-1.144,0.571-1.485
					c0.206-0.341,0.355-0.52,0.355-0.52s0.379-0.297,1.005-0.549c0.624-0.264,1.495-0.377,2.259-0.265
					c0.771,0.106,1.437,0.381,1.907,0.62C98.29,53.817,98.572,54,98.572,54z"/>
			</g>
		</g>
	</g>
	<g>
		<g>
			<g>
				<path d="M101.072,58.5c0,0-0.184-0.339-0.367-0.678c-0.1-0.165-0.169-0.35-0.269-0.455c-0.099-0.104-0.169-0.166-0.169-0.166
					s0.076,0.03,0.212,0.055c0.115,0.066,0.398-0.085,0.625-0.13c0.223-0.064,0.511-0.111,0.681-0.12
					c0.18-0.012,0.287-0.006,0.287-0.006s0.014,0.125,0.053,0.29c0.041,0.176,0.104,0.339,0.202,0.554
					c0.083,0.22,0.223,0.333,0.23,0.599c0.028,0.224,0.032,0.386,0.032,0.386s-0.104,0-0.259,0c-0.152-0.004-0.328-0.08-0.517-0.124
					C101.443,58.603,101.072,58.5,101.072,58.5z"/>
			</g>
		</g>
	</g>
	<g>
		<g>
			<path style="fill:none;stroke:#000000;stroke-width:5;stroke-miterlimit:10;" d="M102.072,55"/>
		</g>
	</g>
	<g>
		<g>
			<g>
				<path d="M90.072,46c0,0,0.175-0.226,0.438-0.564c0.309-0.317,0.735-0.781,1.362-1.073c0.61-0.316,1.455-0.41,2.087-0.251
					c0.637,0.141,1.01,0.394,1.01,0.394s0.164,0.151,0.359,0.453c0.209,0.294,0.431,0.741,0.573,1.279
					c0.142,0.539,0.203,1.172,0.084,1.851c-0.111,0.654-0.429,1.469-1.209,1.923c-0.803,0.433-1.594,0.182-2.08-0.076
					c-0.521-0.269-0.894-0.607-1.201-0.899c-0.3-0.299-0.531-0.555-0.681-0.747C90.66,48.105,90.572,48,90.572,48
					s0.117,0.072,0.322,0.198c0.198,0.132,0.496,0.299,0.855,0.477c0.36,0.17,0.795,0.351,1.238,0.414
					c0.444,0.081,0.863-0.029,0.975-0.237c0.28-0.381,0.044-1.341-0.287-1.735c-0.159-0.216-0.312-0.348-0.42-0.404
					c-0.102-0.071-0.162-0.075-0.161-0.079c-0.001,0-0.012-0.148-0.121-0.341c-0.101-0.197-0.374-0.445-0.83-0.538
					c-0.453-0.109-0.984-0.018-1.387,0.049C90.347,45.921,90.072,46,90.072,46z"/>
			</g>
		</g>
	</g>
	<g>
		<g>
			<g>
				<path d="M84.572,41c0,0,0.209-0.176,0.522-0.44c0.299-0.271,0.648-0.654,1.124-1.03c0.897-0.833,2.491-1.074,2.445-1.036
					l0.728,0.228l0.888,0.278l0.071,0.636c0.081,0.729,0.126,1.476,0.017,2.264c-0.107,0.761-0.41,1.697-1.197,2.247
					c-0.807,0.515-1.653,0.419-2.301,0.226c-0.668-0.204-1.246-0.528-1.797-0.871c0.635,0.141,1.275,0.243,1.881,0.215
					c0.604-0.018,1.148-0.246,1.347-0.567c0.378-0.637,0.005-1.79-0.072-2.906c0.175,0.346,0.35,0.691,0.561,0.895l-0.456,0.173
					c-0.005-0.013-0.154-0.107-0.422-0.239c-0.266-0.125-0.675-0.232-1.179-0.22c-0.49-0.002-1.061,0.09-1.477,0.122
					C84.846,40.989,84.572,41,84.572,41z"/>
			</g>
		</g>
	</g>
	<g>
		<g>
			<path style="fill:none;stroke:#000000;stroke-width:5;stroke-miterlimit:10;" d="M84.572,41.5"/>
		</g>
	</g>
	<g>
		<g>
			<g>
				<path d="M82.072,35.5c0,0,0.083-0.271,0.207-0.677c0.154-0.403,0.386-0.979,0.805-1.484l0.324-0.382
					c0.124-0.109,0.247-0.216,0.366-0.319c0.245-0.225,0.494-0.371,0.713-0.504c0.445-0.287,0.746-0.397,0.746-0.397
					c0.657-0.038,1.246,0.051,1.839,0.111l0.948,0.096l0.14,0.592c0.148,0.632,0.291,1.266,0.321,1.975l-0.013,0.549
					c-0.026,0.194-0.05,0.385-0.1,0.577c-0.111,0.391-0.311,0.789-0.617,1.066c-0.613,0.556-1.291,0.644-1.888,0.728
					c-0.609,0.067-1.2,0.07-1.792,0.071c0.558-0.192,1.117-0.39,1.633-0.633c0.505-0.239,0.995-0.557,1.147-0.91
					c0.291-0.614-0.273-1.611-0.487-2.653c0.235,0.283,0.472,0.567,0.707,0.722c-0.479,0.157-0.963,0.287-1.35,0.503
					c0,0-0.24-0.075-0.561-0.1c-0.168-0.021-0.377-0.052-0.575-0.031c-0.108,0.004-0.221,0.009-0.335,0.014l-0.335,0.075
					c-0.472,0.103-0.929,0.373-1.276,0.594C82.3,35.332,82.072,35.5,82.072,35.5z"/>
			</g>
		</g>
	</g>
	<g>
		<g>
			<g>
				<polygon points="83.572,35.5 82.154,35.167 83.572,34.5 84.99,35.167 				"/>
			</g>
		</g>
	</g>
	<g>
		<g>
			<g>
				<path d="M158.072,122.5c0,0-0.14-0.026-0.384-0.071c-0.243-0.023-0.599-0.164-1.009-0.126c-0.789-0.078-1.877,0.213-2.664,0.771
					c-0.812,0.558-1.317,1.382-1.532,1.998c-0.05,0.154-0.095,0.297-0.135,0.423c-0.024,0.128-0.03,0.242-0.044,0.332
					c-0.024,0.177-0.038,0.278-0.038,0.278c0.061-0.011-0.443,0.762-0.109,1.946c0.121,0.621,0.563,1.2,1.255,1.87
					c0.192,0.166,0.404,0.379,0.589,0.515c0.17,0.101,0.339,0.212,0.513,0.335l0.609,0.239c0.205,0.01,0.422,0.095,0.635,0.071
					c0.858-0.006,1.738-0.58,2.317-1.356c0.592-0.774,0.923-1.688,1.075-2.484c0.103-0.4,0.095-0.777,0.128-1.114
					c-0.01-0.334-0.03-0.629-0.05-0.872c-0.1-0.48-0.156-0.755-0.156-0.755s0.1,0.265,0.275,0.729
					c0.059,0.24,0.127,0.536,0.191,0.882c0.022,0.347,0.091,0.745,0.052,1.18c-0.03,0.868-0.218,1.905-0.759,2.916
					c-0.521,0.989-1.506,2.021-2.912,2.284c-0.34,0.083-0.689,0.04-1.041,0.052c-0.334-0.053-0.665-0.132-0.997-0.212
					c-0.315-0.133-0.633-0.275-0.943-0.426c-0.273-0.149-0.466-0.294-0.697-0.438c-0.941-0.631-1.915-1.526-2.312-2.542
					c-0.137-0.236-0.212-0.484-0.274-0.726c-0.065-0.239-0.138-0.469-0.177-0.688c-0.035-0.438-0.086-0.833-0.066-1.149
					c0.033-0.317,0.06-0.566,0.077-0.736c0.019-0.172,0.04-0.26,0.039-0.26c0,0,0.08-0.163,0.22-0.449
					c0.073-0.14,0.152-0.313,0.263-0.498c0.126-0.174,0.269-0.369,0.424-0.582c0.641-0.821,1.739-1.693,2.993-2.053
					c1.252-0.368,2.52-0.271,3.361,0.089c0.438,0.108,0.709,0.34,0.939,0.44C157.947,122.432,158.072,122.5,158.072,122.5z"/>
			</g>
		</g>
	</g>
	<g>
		<g>
			<g>
				<path d="M129.072,136.5c0,0-0.039-0.131-0.07-0.372c-0.025-0.251,0.021-0.637,0.274-1.029c0.511-0.807,1.708-1.351,2.923-1.487
					c1.221-0.154,2.571,0.087,3.533,0.758c0.484,0.317,0.821,0.743,1.029,1.05c0.19,0.322,0.28,0.522,0.28,0.522
					s0.022,0.104,0.063,0.302c0.05,0.196,0.062,0.482,0.065,0.837c-0.011,0.71-0.271,1.608-0.755,2.437
					c-0.137,0.218-0.228,0.378-0.418,0.66c-0.134,0.175-0.272,0.354-0.414,0.54l-0.216,0.282l-0.316,0.326
					c-0.221,0.211-0.431,0.451-0.677,0.633c-0.923,0.754-2.26,1.283-3.579,1.108c-1.324-0.162-2.436-1.038-2.958-2.041
					c-0.526-1.006-0.651-2.057-0.526-2.89c0.006-0.424,0.139-0.791,0.208-1.12c0.063-0.331,0.183-0.6,0.273-0.821
					c0.178-0.441,0.279-0.694,0.279-0.694s-0.059,0.265-0.163,0.729c-0.052,0.229-0.125,0.506-0.132,0.835
					c-0.015,0.325-0.084,0.687-0.023,1.079c0.005,0.784,0.297,1.684,0.837,2.395c0.546,0.715,1.426,1.153,2.286,1.113
					c0.865-0.038,1.652-0.506,2.201-1.134c0.142-0.144,0.229-0.313,0.346-0.455l0.165-0.216l0.167-0.313
					c0.11-0.206,0.217-0.407,0.32-0.601c0.064-0.157,0.126-0.31,0.185-0.455c0.235-0.632,0.249-1.099,0.197-1.337
					c-0.055-0.24-0.12-0.32-0.114-0.326c-0.018-0.003,0.08-0.225-0.186-0.645c-0.252-0.423-1.044-0.953-1.992-1.142
					c-0.934-0.208-1.991-0.102-2.556,0.361C129.015,135.85,129.094,136.527,129.072,136.5z"/>
			</g>
		</g>
	</g>
	<g>
		<g>
			<g>
				<path d="M114.072,127.5c0,0,0.085-0.146,0.234-0.401c0.074-0.127,0.165-0.282,0.269-0.46c0.082-0.185,0.175-0.393,0.276-0.619
					c0.386-0.9,0.747-2.179,0.816-3.439c0.09-1.262-0.138-2.475-0.484-3.177c-0.372-0.692-0.722-0.888-0.699-0.915
					c-0.058,0.058-0.268-0.794-1.895-0.947c-0.188-0.046-0.412-0.022-0.643-0.006c-0.208,0.011-0.423,0.021-0.645,0.032
					c-0.545,0.132-1.225,0.242-1.609,0.452c-0.932,0.359-1.936,1.113-2.456,2.13c-0.546,1.008-0.634,2.273-0.181,3.301
					c0.435,1.047,1.389,1.735,2.275,2.082c0.227,0.083,0.443,0.173,0.656,0.241c0.22,0.039,0.43,0.076,0.626,0.11
					c0.198,0.035,0.385,0.067,0.557,0.098c0.175,0.002,0.335,0.005,0.48,0.007c0.586,0.008,0.921,0.012,0.921,0.012
					s-0.334,0.04-0.918,0.109c-0.146,0.018-0.311,0.037-0.488,0.058c-0.179-0.007-0.372-0.015-0.579-0.022
					c-0.209-0.01-0.432-0.02-0.666-0.03c-0.23-0.041-0.472-0.104-0.727-0.161c-0.993-0.244-2.208-0.86-2.932-2.084
					c-0.736-1.194-0.869-2.853-0.325-4.286c0.538-1.46,1.645-2.604,2.956-3.329c0.708-0.427,1.234-0.553,1.783-0.772l0.05-0.019
					l0.025-0.01l0.115-0.028l0.119-0.024l0.236-0.048c0.157-0.031,0.313-0.062,0.465-0.092c0.306-0.061,0.6-0.125,0.915-0.111
					c0.309-0.002,0.605-0.004,0.888-0.005c0.289,0.036,0.573,0.106,0.837,0.161c0.535,0.072,0.972,0.387,1.341,0.552
					c0.352,0.212,0.58,0.458,0.754,0.598c0.167,0.15,0.254,0.233,0.254,0.233s0.109,0.204,0.302,0.562
					c0.22,0.351,0.352,0.88,0.505,1.492c0.22,1.234,0.044,2.762-0.425,4.121c-0.457,1.37-1.187,2.574-1.831,3.391
					c-0.316,0.42-0.604,0.72-0.824,0.92C114.192,127.382,114.072,127.5,114.072,127.5z"/>
			</g>
		</g>
	</g>
	<g>
		<g>
			<path style="fill:none;stroke:#000000;stroke-width:5;stroke-miterlimit:10;" d="M129.572,121"/>
		</g>
	</g>
	<g>
		<g>
			<g>
				<path d="M128.072,120c0,0-0.242-0.272-0.583-0.709c-0.339-0.457-0.756-1.102-1.034-1.883c-0.284-0.771-0.367-1.717-0.18-2.474
					c0.087-0.373,0.216-0.695,0.338-0.905c0.118-0.215,0.195-0.336,0.195-0.336c0.865-0.802,2.117-1.147,3.206-0.871
					c1.103,0.256,1.944,1.093,2.297,1.973c0.362,0.889,0.374,1.773,0.253,2.569c-0.125,0.801-0.385,1.534-0.686,2.231l-0.108,0.301
					c-0.483,0.164-1.024,0.164-1.448,0.075c-0.419-0.085-0.822-0.101-1.25,0.028c0.356-0.243,0.813-0.371,1.25-0.411
					c0.433-0.042,0.79-0.16,1.154-0.28c-0.07,0.032-0.141,0.063-0.177,0.106c0.24-1.393,0.189-2.935-0.501-3.798
					c-0.683-0.874-1.688-0.564-1.911,0.004c0,0-0.163,0.026-0.412,0.253c-0.245,0.22-0.52,0.725-0.613,1.364
					c-0.101,0.632-0.052,1.345,0.029,1.866C127.985,119.642,128.072,120,128.072,120z"/>
			</g>
		</g>
	</g>
	<g>
		<g>
			<path style="fill:none;stroke:#000000;stroke-width:5;stroke-miterlimit:10;" d="M141.072,121"/>
		</g>
	</g>
	<g>
		<g>
			<g>
				<path d="M141.072,121c0,0-0.16-0.043-0.4-0.107c-0.235-0.037-0.573-0.218-0.869-0.154c-0.546,0.023-0.99,0.266-0.989,0.265
					c0,0.001-0.111-0.17-0.379-0.324c-0.127-0.1-0.294-0.202-0.499-0.258c-0.202-0.083-0.438-0.161-0.688-0.172
					c-0.252-0.041-0.519-0.063-0.768-0.027c-0.25,0.023-0.508,0.024-0.705,0.093c-0.422,0.111-0.703,0.186-0.703,0.186
					s0.192-0.228,0.481-0.569c0.143-0.189,0.356-0.344,0.585-0.538c0.225-0.206,0.499-0.375,0.8-0.527
					c1.173-0.696,2.873-0.585,2.848-0.525c0,0.001,0.637,0.592,0.966,1.345c0.203,0.341,0.172,0.658,0.244,0.906
					C141.042,120.836,141.072,121,141.072,121z"/>
			</g>
		</g>
	</g>
	<g>
		<g>
			<g>
				<path d="M134.572,123c-0.014-0.039,0.851,0.763,1.684,0.952c0.426,0.13,0.834,0.118,1.097,0.076
					c0.272-0.075,0.41-0.105,0.413-0.122c0.005-0.02,0.25,0.143,0.743,0.192c0.479,0.027,1.241-0.156,1.838-0.743
					c0.605-0.56,1.007-1.438,1.108-2.143c0.101-0.351,0.075-0.655,0.099-0.871c0.012-0.218,0.019-0.342,0.019-0.342
					s0.037,0.118,0.103,0.325c0.053,0.21,0.19,0.509,0.224,0.893c0.158,0.755,0.126,1.878-0.383,2.939
					c-0.479,1.075-1.52,1.932-2.471,2.272c-0.479,0.141-0.902,0.26-1.207,0.256c-0.307,0.017-0.482,0.026-0.482,0.026
					s-0.086-0.025-0.223-0.104c-0.138-0.074-0.331-0.182-0.549-0.313c-0.423-0.289-0.904-0.736-1.225-1.243
					C134.661,123.994,134.617,123.008,134.572,123z"/>
			</g>
		</g>
	</g>
	<g>
		<g>
			<g>
				<path d="M147.572,96.5c0,0-0.173,0.041-0.475,0.112c-0.308,0.066-0.721,0.197-1.177,0.425c-0.95,0.401-1.862,1.456-1.868,2.639
					c-0.06,1.181,0.555,2.302,1.099,2.966c0.571,0.67,1.042,0.971,1.042,0.971s0.173,0.218,0.538,0.53
					c0.369,0.297,0.939,0.708,1.741,0.892c0.792,0.199,1.818,0.169,2.894-0.273l0.203-0.077l0.051-0.02
					c-0.031,0.02,0.08-0.046-0.069,0.043l0.008-0.004l0.014-0.008l0.026-0.016l0.109-0.063l0.441-0.25
					c0.136-0.085,0.325-0.168,0.419-0.255l0.304-0.254c0.432-0.322,0.785-0.838,1.041-1.354c0.475-1.08,0.31-2.425-0.241-3.51
					c-0.547-1.101-1.447-1.939-2.32-2.46c-1.773-1.101-3.313-0.969-3.279-1.035c-0.025,0.076,1.469-0.271,3.485,0.643
					c0.993,0.438,2.091,1.208,2.886,2.395c0.788,1.159,1.273,2.815,0.81,4.43c-0.263,0.785-0.636,1.519-1.238,2.125l-0.449,0.456
					c-0.153,0.152-0.279,0.219-0.419,0.332l-0.406,0.304l-0.101,0.075l-0.025,0.019l-0.013,0.01l-0.089,0.054l-0.062,0.034
					l-0.247,0.134c-1.295,0.744-2.817,1.041-4.109,0.888c-1.303-0.128-2.298-0.648-2.934-1.04c-0.634-0.411-0.945-0.712-0.945-0.712
					s-0.591-0.652-1.126-1.788c-0.51-1.125-0.937-2.826-0.428-4.457c0.244-0.802,0.742-1.52,1.337-1.978
					c0.592-0.466,1.234-0.702,1.777-0.804c0.541-0.116,1.005-0.139,1.308-0.127C147.395,96.496,147.572,96.5,147.572,96.5z"/>
			</g>
		</g>
	</g>
	<g>
		<g>
			<g>
				<path d="M131.072,97c0,0,0.041-0.093,0.112-0.254c0.073-0.163,0.163-0.395,0.329-0.664c0.307-0.558,0.8-1.25,1.483-1.846
					c0.669-0.595,1.558-1.088,2.456-1.181c0.43-0.064,0.863,0.003,1.142,0.063c0.288,0.087,0.454,0.153,0.454,0.153
					s0.072,0.047,0.209,0.135c0.119,0.107,0.293,0.271,0.494,0.487c0.199,0.216,0.342,0.512,0.525,0.839
					c0.099,0.317,0.261,0.7,0.293,1.068c0.05,0.375,0.095,0.776,0.061,1.163l-0.011,0.3l-0.007,0.151l-0.004,0.076l-0.012,0.161
					l-0.002,0.009l-0.004,0.016l-0.009,0.033c-0.059,0.193-0.065,0.304-0.167,0.576c-0.26,0.671-0.648,1.076-1.063,1.363
					c-0.423,0.297-0.881,0.491-1.345,0.589c-0.92,0.207-1.892,0.136-2.681-0.321c-0.396-0.225-0.691-0.583-0.866-0.955
					c-0.136-0.386-0.187-0.756-0.13-1.077c0.078-0.64,0.302-1.104,0.478-1.406c0.168-0.305,0.264-0.479,0.264-0.479
					s-0.055,0.19-0.15,0.524c-0.104,0.319-0.207,0.82-0.147,1.359c0.028,0.552,0.37,1.077,0.943,1.227
					c0.56,0.173,1.271,0.067,1.841-0.216c0.289-0.131,0.538-0.329,0.708-0.53c0.112-0.087,0.133-0.213,0.2-0.303
					c0.072-0.105,0-0.127,0.05-0.161c0.024-0.072,0.018-0.338,0.027-0.492l0.001-0.033l0.001-0.017V97.35
					c0.003-0.034-0.021,0.285-0.011,0.148l-0.001-0.004l-0.012-0.056l-0.021-0.11l-0.042-0.216
					c-0.038-0.295-0.134-0.521-0.208-0.725c-0.066-0.218-0.19-0.315-0.248-0.45c-0.101-0.058-0.147-0.149-0.207-0.163
					c-0.058-0.012-0.088-0.028-0.107-0.044c-0.028,0.004-0.043,0.006-0.043,0.006c-0.011,0.007,0.015-0.138-0.285-0.29
					c-0.29-0.16-0.966-0.185-1.656,0.019c-0.692,0.186-1.389,0.566-1.853,0.904c-0.246,0.157-0.436,0.335-0.568,0.449
					C131.148,96.934,131.072,97,131.072,97z"/>
			</g>
		</g>
	</g>
	<g>
		<g>
			<g>
				<path d="M158.572,114c-0.013,0.005,0.095-0.218,0.112-0.507c0.046-0.311-0.031-0.67,0.114-1.233
					c0.028-0.136,0.129-0.311,0.239-0.472c0.154-0.168,0.337-0.328,0.567-0.415c0.456-0.188,0.825-0.16,1.078-0.152
					c0.505,0.037,0.774,0.102,0.774,0.102c0.57,0.459,0.909,0.913,1.29,1.366l0.744,0.886l-0.48,0.489
					c-0.327,0.333-0.621,0.661-1.096,0.974c-0.23,0.152-0.529,0.298-0.873,0.351c-0.359,0.044-0.688-0.049-0.917-0.17
					c-0.449-0.248-0.692-0.52-1.011-0.733c-0.306-0.218-0.65-0.388-1.043-0.484c0.39-0.084,0.818-0.088,1.238-0.018
					c0.412,0.063,0.838,0.208,1.135,0.208c0.302-0.026,0.242-0.126,0.386-0.348c0.116-0.215,0.233-0.566,0.638-0.705
					c-0.024,0.392-0.049,0.782,0.003,1.083c-0.485-0.184-1.001-0.393-1.39-0.419c-0.001-0.001-0.072-0.138-0.121-0.301
					c-0.023-0.08-0.006-0.144,0.091-0.241c0.042-0.063,0.068-0.11,0.059-0.176c-0.022-0.021-0.069-0.062-0.141-0.025
					c-0.28,0.099-0.632,0.486-0.91,0.671C158.768,113.945,158.573,113.985,158.572,114z"/>
			</g>
		</g>
	</g>
	<g>
		<g>
			<g>
				<path d="M171.572,109.5c-0.032-0.002,0.194,0.525-0.199,1.204c-0.081,0.155-0.131,0.285-0.157,0.394
					c-0.059,0.124-0.012,0.201,0.021,0.255l0.023,0.038c-0.061-0.064-0.119-0.126-0.174-0.184l-0.001-0.012
					c-0.005-0.009-0.007-0.014-0.007-0.014c-0.006-0.009-0.016-0.018-0.027-0.025c0.023,0.018,0.118,0.077,0.176,0.102
					c0.205,0.086,0.119,0.029,0.08,0.022c-0.073,0.073-0.146,0.146-0.084,0.22c-0.102-0.188-0.203-0.376-0.268-0.588
					c0.016,0.178,0.044,0.367,0.04,0.481c-0.014,0.024,0.018,0.058-0.031,0.087c-0.095,0.092-0.163,0.317-0.183,0.338
					c-0.033,0.209,0.047,0.072-0.196-0.139c0.084,0.052,0.279-0.135,0.435-0.273c0.165-0.149,0.346-0.32,0.553-0.406
					c-0.077,0.205-0.073,0.408-0.081,0.622c-0.02,0.222,0.029,0.424-0.153,0.772c-0.035,0.08-0.155,0.196-0.286,0.273
					c-0.168,0.08-0.358,0.108-0.508,0.082c-0.312-0.046-0.471-0.149-0.616-0.223c-0.291-0.164-0.49-0.31-0.701-0.464l-0.058-0.563
					c-0.071-0.223-0.136-0.464-0.187-0.723c0.026-0.329-0.003-0.666,0.214-1.051c-0.01,0.024,0.26-0.224,0.572-0.263
					c0.161-0.038,0.354-0.076,0.473-0.042c0.148,0.014,0.282,0.039,0.379,0.081C170.984,109.759,171.592,109.483,171.572,109.5z"/>
			</g>
		</g>
	</g>
	<g>
		<g>
			<g>
				<path d="M153.572,145c0,0,0.151-0.135,0.379-0.338c0.216-0.213,0.542-0.458,0.936-0.704c0.74-0.479,1.774-0.745,1.811-0.703
					c-0.001,0.034,0.516,0.081,1.308,0.763c0.386,0.279,0.826,1.141,0.639,1.845c-0.162,0.738-0.628,1.046-0.994,1.336
					c-0.786,0.491-1.568,0.592-2.132,0.709c-0.567,0.056-0.945,0.093-0.945,0.093s0.313-0.202,0.782-0.504
					c0.427-0.336,1.029-0.795,1.315-1.323c0.109-0.245,0.172-0.521,0.043-0.492c-0.001-0.007-0.042,0.019-0.057,0.051
					c-0.014,0.031-0.002,0.057-0.028,0.087c-0.015,0.029-0.008,0.058-0.002,0.076c-0.024,0.017-0.04,0.031-0.05,0.043
					c-0.125,0.066-0.394,0.105-0.378,0.108c0.048-0.013-0.39-0.42-1.1-0.687c-0.328-0.124-0.721-0.234-1.026-0.271
					C153.772,145.035,153.572,145,153.572,145z"/>
			</g>
		</g>
	</g>
	<g>
		<g>
			<g>
				<polygon points="154.072,145.5 152.654,144.833 154.072,143.5 155.49,144.833 				"/>
			</g>
		</g>
	</g>
	<g>
		<g>
			<path style="fill:none;stroke:#000000;stroke-width:5;stroke-miterlimit:10;" d="M116.572,146"/>
		</g>
	</g>
	<g>
		<g>
			<g>
				<path d="M116.072,147c0,0,0.17-0.077,0.425-0.192c0.279-0.096,0.688-0.195,1.072-0.253c0.391-0.064,0.774-0.11,0.997-0.184
					c0.247-0.06,0.295-0.154,0.31-0.145c0.022,0.021,0.017,0.027,0.026,0.045l0.012,0.024c0.003-0.009,0.004,0.015,0.005,0.075
					l-0.009,0.066c-0.008,0.09-0.002,0.184,0.019,0.279c0.031,0.118,0.007,0.066,0.021,0.114c0.049,0.111-0.02-0.054-0.065-0.067
					c-0.008-0.009-0.167-0.176-0.152-0.154c0.011,0.005,0.025,0.023,0.045,0.02c0.177-0.048,0.389-0.425,0.343-0.787
					c0.317,0.299,0.635,0.598,0.952,0.972c-0.188-0.148-0.565-0.134-1.024,0.025c-0.444,0.147-1.013,0.312-1.476,0.161
					c0.47-0.13,0.74-0.456,1.045-0.808c0.291-0.341,0.735-0.803,1.455-0.931l0.613-0.109l0.034,0.956
					c0.018,0.485,0.104,0.953-0.141,1.627c-0.081,0.175-0.178,0.359-0.317,0.537c-0.174,0.18-0.36,0.365-0.609,0.475
					c-0.508,0.257-0.951,0.256-1.306,0.266c0.017,0-0.263-0.14-0.483-0.354c-0.248-0.214-0.479-0.492-0.715-0.75
					c-0.238-0.267-0.477-0.492-0.684-0.659C116.229,147.1,116.072,147,116.072,147z"/>
			</g>
		</g>
	</g>
	<g>
		<g>
			<g>
				<path d="M101.572,112c0.01-0.022-0.366-0.389-0.622-1.003c-0.124-0.29-0.214-0.625-0.237-0.908
					c-0.029-0.28,0.001-0.497,0.001-0.497c0.006-0.001,0.052-0.071,0.192-0.19c0.136-0.118,0.322-0.281,0.6-0.425
					c0.541-0.313,1.359-0.382,1.908-0.166c0.566,0.195,0.967,0.514,1.236,0.764c0.271,0.247,0.422,0.426,0.422,0.426
					s-0.239-0.023-0.581-0.013c-0.337,0.002-0.791,0.068-1.104,0.24c-0.333,0.171-0.381,0.44-0.327,0.567
					c0.045,0.134,0.104,0.222,0.102,0.227c0.017-0.01-0.396-0.082-0.818,0.237C101.934,111.509,101.574,112.024,101.572,112z"/>
			</g>
		</g>
	</g>
	<g>
		<g>
			<g>
				<path d="M105.572,112.5c-0.025,0.003-0.021,0.513-0.213,1.044c-0.209,0.572-0.592,1.097-0.592,1.097
					c-0.279,0.029-0.803,0.025-1.195-0.043l-0.507-0.084c-0.359-0.389-0.826-0.942-0.888-1.603
					c-0.025-0.627,0.222-1.002,0.395-1.411c0.18,0.392,0.375,0.847,0.638,0.988c0.254,0.109,0.506,0.044,0.689,0.357
					c-0.109-0.148-0.218-0.296-0.327-0.321c0.089-0.204,0.037-0.296,0.164-0.524c0,0,0.353,0.252,0.799,0.391
					C105.02,112.528,105.582,112.475,105.572,112.5z"/>
			</g>
		</g>
	</g>
	<g>
		<g>
			<g>
				<path d="M119.572,106.5c0,0,0.076,0.108,0.19,0.271c0.138,0.108,0.165,0.561,0.242,0.781c0.009,0.08,0.042,0.123,0.085,0.137
					l0.056,0.028c-0.012-0.001,0.089,0.025-0.116-0.028l-0.207-0.049c-0.063-0.014-0.022-0.008-0.038-0.013
					c-0.015-0.058-0.254,0.01,0.03-0.061c0.176-0.065,0.202-0.142,0.336-0.246c0.202-0.134,0.307-0.221,0.307-0.221
					c0.083-0.036-0.068,0.08,0.036,0.189c0.051,0.117,0.102,0.234,0.224,0.244c-0.215-0.022-0.43-0.044-0.645-0.109
					c0.256,0.154,0.334,0.368,0.73,0.291c0.386-0.086,0.859-0.212,1.27-0.215c-0.273,0.336-0.42,0.662-0.627,1.052
					c-0.106,0.196-0.304,0.428-0.568,0.606c-0.271,0.175-0.532,0.279-0.805,0.375l-0.51-0.269c-0.372-0.08-0.71-0.056-1.236-0.396
					c0,0-0.013-0.048-0.036-0.131c-0.033-0.106-0.106-0.341-0.127-0.571c-0.038-0.202,0.018-0.575,0.148-0.854
					c0.065-0.116,0.139-0.161,0.211-0.237c0.077-0.076,0.147-0.124,0.202-0.132c0.124-0.049,0.239-0.088,0.324-0.091
					c0.098-0.016,0.206-0.06,0.274-0.137C119.473,106.586,119.572,106.5,119.572,106.5z"/>
			</g>
		</g>
	</g>
	<g>
		<g>
			<g>
				<path d="M122.072,106.5c0,0-0.357-0.125-0.714-0.25c-0.354-0.176-0.731-0.098-0.725-0.113c0,0,0.085-0.021,0.215-0.083
					c0.125-0.059,0.265-0.141,0.405-0.295c0.249-0.282,0.318-0.759,0.318-0.759s0.102-0.012,0.275-0.006
					c0.165,0.012,0.437,0.023,0.673,0.127c0.232,0.102,0.498,0.265,0.662,0.405c0.159,0.139,0.264,0.253,0.264,0.253
					s-0.08,0.068-0.201,0.17c-0.119,0.108-0.292,0.193-0.47,0.257C122.424,106.354,122.072,106.5,122.072,106.5z"/>
			</g>
		</g>
	</g>
	<g>
		<g>
			<path style="fill:none;stroke:#000000;stroke-width:5;stroke-miterlimit:10;" d="M138.072,86"/>
		</g>
	</g>
	<g>
		<g>
			<path style="fill:none;stroke:#000000;stroke-width:5;stroke-miterlimit:10;" d="M138.572,86"/>
		</g>
	</g>
	<g>
		<g>
			<g>
				<path d="M140.072,87.5c0,0-0.04,0.667-0.08,1.334c-0.122,0.69-0.457,1.524-0.486,1.492c-0.385,0.142-0.771,0.331-1.123,0.371
					l-1.037,0.124l-0.782,0.093l-0.146-0.259c-0.284-0.501-0.533-1.16-0.47-1.737c0.064-0.548,0.204-0.915,0.125-1.418
					c0.346,0.325,0.551,0.884,0.754,1.241c0.215,0.344,0.513,0.479,0.654,0.851c-0.228-0.138-0.455-0.275-0.651-0.321l0.578-0.585
					c0.189-0.186,0.241-0.418,0.345-0.588c0.02,0.026,0.467,0.049,1.094-0.099C139.459,87.749,140.072,87.5,140.072,87.5z"/>
			</g>
		</g>
	</g>
	<g>
		<g>
			<path style="fill:none;stroke:#000000;stroke-width:5;stroke-miterlimit:10;" d="M137.572,86.5"/>
		</g>
	</g>
	<g>
		<g>
			<g>
				<path d="M89.572,108c0,0,0.05-0.007,0.139-0.019c0.084-0.02,0.222-0.01,0.354-0.067c0.238-0.113,0.48-0.31,0.852-0.546
					c0.354-0.218,0.941-0.446,1.484-0.357c0.556,0.04,0.824,0.229,0.839,0.215c0.104,0.103,0.201,0.207,0.294,0.313l0.912,1.036
					l-0.736,0.685c-0.399,0.37-0.791,0.732-1.292,1.063c-0.477,0.314-1.104,0.656-1.849,0.618c-0.756-0.043-1.216-0.489-1.552-0.837
					c-0.345-0.37-0.619-0.749-0.945-1.103c0.451,0.163,0.896,0.384,1.325,0.536c0.427,0.157,0.846,0.207,1.04,0.046
					c0.382-0.256,0.737-1.043,1.38-1.585c-0.069,0.488-0.138,0.977-0.101,1.358c-0.072,0.04-0.134,0.085-0.186,0.133
					c0,0.015,0.036-0.123,0.054-0.229c0.043-0.159-0.129-0.345-0.49-0.484c-0.351-0.125-0.837-0.246-1.145-0.434
					C89.702,108.153,89.572,108,89.572,108z"/>
			</g>
		</g>
	</g>
	<g>
		<g>
			<g>
				<path d="M108.83,146.5c0,0-0.227-0.113-0.567-0.282c-0.344-0.194-0.799-0.462-1.218-0.917c-0.203-0.23-0.405-0.516-0.517-0.875
					c-0.126-0.342-0.148-0.77-0.083-1.098c0.047-0.356,0.168-0.589,0.242-0.779c0.081-0.173,0.135-0.252,0.135-0.252
					c0.605-0.519,1.188-0.732,1.717-0.877c0.537-0.152,1.044-0.222,1.545-0.283l0.805-0.099l0.188,0.365
					c0.202,0.394,0.403,0.782,0.563,1.236c0.147,0.431,0.315,0.99,0.117,1.586c-0.225,0.583-0.656,0.804-0.975,1.036
					c-0.338,0.224-0.661,0.448-0.951,0.738c0.159-0.374,0.391-0.73,0.623-1.065c0.229-0.33,0.443-0.677,0.397-0.904
					c-0.065-0.428-0.662-0.994-0.987-1.656c0.237,0.163,0.476,0.326,0.686,0.394c-0.386,0.225-0.762,0.455-1.063,0.711
					c-0.315,0.24-0.537,0.541-0.552,0.711c-0.009,0.004-0.114-0.015-0.243-0.035c-0.134-0.043-0.364,0.118-0.361,0.544
					c-0.007,0.401,0.136,0.88,0.26,1.22C108.733,146.267,108.83,146.5,108.83,146.5z"/>
			</g>
		</g>
	</g>
	<g>
		<g>
			<g>
				<path d="M156.072,154.5c0,0-0.034-0.227-0.107-0.555c-0.069-0.323-0.194-0.744-0.282-1.225
					c-0.092-0.457-0.109-1.133,0.267-1.726c0.372-0.579,0.807-0.782,0.782-0.78c0.611-0.165,1.049-0.091,1.45-0.03
					c0.39,0.076,0.729,0.188,1.06,0.303l0.806,0.28l0.04,0.395c0.048,0.454,0.097,0.899,0.071,1.405
					c-0.022,0.474-0.104,1.116-0.565,1.589c-0.475,0.427-0.945,0.462-1.34,0.547c-0.403,0.071-0.794,0.147-1.181,0.297
					c0.287-0.295,0.638-0.547,0.979-0.78c0.337-0.227,0.662-0.484,0.709-0.7c0.071-0.362-0.276-1.065-0.337-1.803
					c0.16,0.265,0.32,0.53,0.499,0.684c-0.285,0.043-0.561,0.093-0.791,0.171c-0.213,0.08-0.408,0.193-0.362,0.282
					c-0.015,0.005-0.017-0.096-0.08-0.215c-0.076-0.145-0.377-0.001-0.615,0.358c-0.247,0.34-0.479,0.747-0.675,1.037
					C156.209,154.321,156.072,154.5,156.072,154.5z"/>
			</g>
		</g>
	</g>
	<g>
		<g>
			<path style="fill:none;stroke:#000000;stroke-width:5;stroke-miterlimit:10;" d="M174.572,101.5"/>
		</g>
	</g>
	<g>
		<g>
			<g>
				<polygon points="173.072,101.5 173.239,100.082 173.572,101.5 173.239,102.918 				"/>
			</g>
		</g>
	</g>
	<g>
		<g>
			<path style="fill:none;stroke:#000000;stroke-width:5;stroke-miterlimit:10;" d="M175.072,100"/>
		</g>
	</g>
	<g>
		<g>
			<g>
				<path d="M176.072,97.5c0,0,0.028-0.093,0.07-0.231c0.019-0.069,0.049-0.149,0.067-0.238c0-0.091-0.014-0.184-0.043-0.27
					c-0.079-0.155-0.12-0.338-0.173-0.46c-0.055-0.12-0.092-0.2-0.092-0.2s0.067,0.058,0.194,0.135
					c0.134,0.063,0.335,0.133,0.558,0.167c0.442,0.076,0.918,0.098,0.918,0.098s0.046,0.461,0.035,0.952
					c-0.003,0.245-0.042,0.505-0.091,0.709c-0.063,0.207-0.123,0.351-0.123,0.351s-0.104-0.043-0.26-0.107
					c-0.155-0.07-0.328-0.17-0.557-0.286c-0.102-0.061-0.188-0.129-0.257-0.197c-0.052-0.075-0.09-0.15-0.127-0.212
					C176.121,97.584,176.072,97.5,176.072,97.5z"/>
			</g>
		</g>
	</g>
	<g>
		<g>
			<g>
				<path d="M179.072,92.5c0,0,0.061-0.096,0.15-0.24c0.095-0.139,0.23-0.343,0.233-0.549c0.013-0.1,0.011-0.192,0.002-0.273
					c0.01-0.097,0.019-0.188,0.026-0.266c0.005-0.148,0.008-0.248,0.008-0.248c-0.004,0.006,0.128,0.032,0.348,0.057
					c0.22,0.028,0.539,0.025,0.877,0.016c0.332-0.008,0.682-0.022,0.936-0.016c0.252,0.012,0.42,0.02,0.42,0.02
					s-0.079,0.146-0.197,0.363c-0.112,0.219-0.238,0.511-0.377,0.816c-0.135,0.3-0.283,0.615-0.432,0.854
					c-0.144,0.241-0.266,0.405-0.266,0.405s-0.125-0.039-0.312-0.097c-0.088-0.032-0.19-0.069-0.301-0.109
					c-0.134-0.04-0.271-0.09-0.393-0.146c-0.263-0.101-0.405-0.264-0.523-0.387C179.152,92.58,179.072,92.5,179.072,92.5z"/>
			</g>
		</g>
	</g>
	<g>
		<g>
			<g>
				<path d="M182.572,87c0,0,0.138-1.795,0.004-1.762c0,0,0.119,0.005,0.299,0.012c0.159,0.032,0.55-0.094,0.864-0.146
					c0.308-0.074,0.698-0.098,0.938-0.104c0.237,0,0.396,0,0.396,0s-0.063,0.15-0.159,0.375c-0.087,0.228-0.173,0.462-0.229,0.786
					c-0.075,0.315-0.073,0.557-0.205,0.864c-0.113,0.283-0.188,0.472-0.188,0.472C184.222,87.611,182.572,87,182.572,87z"/>
			</g>
		</g>
	</g>
	<g>
		<g>
			<g>
				<path d="M187.572,79.5c0,0,0.028-0.093,0.07-0.231c0.019-0.069,0.049-0.149,0.067-0.238c0-0.091-0.014-0.184-0.043-0.27
					c-0.079-0.155-0.12-0.338-0.173-0.46c-0.055-0.12-0.092-0.2-0.092-0.2s0.067,0.058,0.194,0.135
					c0.134,0.063,0.335,0.133,0.558,0.167c0.442,0.076,0.918,0.098,0.918,0.098s0.046,0.461,0.035,0.952
					c-0.003,0.245-0.042,0.505-0.091,0.709c-0.063,0.207-0.123,0.351-0.123,0.351s-0.104-0.043-0.26-0.107
					c-0.155-0.07-0.328-0.17-0.557-0.286c-0.102-0.061-0.188-0.129-0.257-0.197c-0.052-0.075-0.09-0.15-0.127-0.212
					C187.621,79.584,187.572,79.5,187.572,79.5z"/>
			</g>
		</g>
	</g>
	<g>
		<g>
			<g>
				<path d="M194.572,71.5l0.351-2.064c0,0,0.206-0.047,0.516-0.119c0.325-0.066,0.699-0.172,1.07-0.296
					c0.782-0.26,1.563-0.521,1.563-0.521s-0.301,0.782-0.656,1.61c-0.174,0.421-0.366,0.834-0.516,1.1
					c-0.147,0.282-0.245,0.47-0.245,0.47L194.572,71.5z"/>
			</g>
		</g>
	</g>
	<g>
		<g>
			<g>
				<path d="M153.072,83c0,0-0.145-0.346-0.289-0.692c-0.109-0.364-0.095-0.811-0.112-0.796c0.178-0.125,1.314,0.934,1.401,0.488
					c0,0,0.085,0.051,0.193,0.21c0.101,0.159,0.119,0.485,0.049,0.759c-0.057,0.272-0.094,0.496-0.097,0.657
					c0.012,0.149,0.02,0.25,0.02,0.25c-0.02,0.012-0.202-0.289-0.51-0.51C153.399,83.184,153.072,83,153.072,83z"/>
			</g>
		</g>
	</g>
	<g>
		<g>
			<g>
				<path d="M159.572,78.5c0,0,0.285-0.389,0.57-0.778c0.322-0.389,0.35-0.845,0.368-0.829c0,0,0.122,0.056,0.306,0.138
					c0.205,0.072,0.521,0.084,0.861,0.12c0.359,0.052,0.652-0.042,0.935-0.068c0.276-0.049,0.46-0.082,0.46-0.082
					s-0.069,0.169-0.175,0.421c-0.122,0.24-0.263,0.665-0.514,0.959c-0.243,0.315-0.486,0.665-0.74,0.896
					c-0.265,0.225-0.469,0.374-0.469,0.374s-0.125-0.057-0.313-0.142c-0.186-0.086-0.408-0.204-0.572-0.376
					C159.931,78.816,159.572,78.5,159.572,78.5z"/>
			</g>
		</g>
	</g>
	<g>
		<g>
			<g>
				<path d="M168.572,71.5c0,0,0.078-0.122,0.194-0.306c0.117-0.182,0.276-0.429,0.397-0.678c0.254-0.48,0.452-0.989,0.452-0.989
					s0.874-0.038,1.752-0.271c0.442-0.11,0.864-0.288,1.185-0.448c0.312-0.185,0.52-0.309,0.52-0.309s-0.073,0.238-0.183,0.596
					c-0.133,0.353-0.354,0.835-0.646,1.276c-0.566,0.897-1.34,1.682-1.34,1.682s-0.612-0.076-1.212-0.222
					c-0.298-0.063-0.568-0.153-0.775-0.221C168.71,71.544,168.572,71.5,168.572,71.5z"/>
			</g>
		</g>
	</g>
	<g>
		<g>
			<g>
				<path d="M183.572,60c0,0,0.057-0.426,0.114-0.852c0.063-0.427,0.101-0.85,0.101-0.85s0.141,0.025,0.351,0.063
					c0.217,0.038,0.498,0.084,0.774,0.115c0.577,0.091,1.135,0.023,1.16,0.024c0,0-0.038,0.145-0.095,0.363
					c-0.063,0.236-0.182,0.533-0.313,0.814c-0.132,0.298-0.277,0.581-0.385,0.787c-0.112,0.211-0.187,0.352-0.187,0.352
					c0,0-0.392-0.193-0.766-0.403C183.95,60.206,183.572,60,183.572,60z"/>
			</g>
		</g>
	</g>
	<g>
		<g>
			<g>
				<path d="M197.072,50c0,0,0.188-0.353,0.331-0.713c0.149-0.358,0.241-0.724,0.241-0.724s0.265,0.338,0.601,0.604
					c0.323,0.295,0.815,0.348,0.827,0.333c0.013-0.02-0.021,0.533-0.39,1.015c-0.334,0.482-0.777,0.872-0.777,0.872
					s-0.259-0.333-0.461-0.683C197.236,50.356,197.072,50,197.072,50z"/>
			</g>
		</g>
	</g>
	<g>
		<g>
			<g>
				<polygon points="100.572,93 99.154,91.5 100.572,88.5 101.99,91.5 				"/>
			</g>
		</g>
	</g>
	<g>
		<g>
			<g>
				<path d="M98.072,84c0,0-0.385-0.271-0.769-0.543c-0.372-0.316-0.82-0.402-0.807-0.418c0,0,0.059-0.126,0.147-0.314
					c0.105-0.188,0.149-0.534,0.232-0.856c0.083-0.335,0.117-0.666,0.148-0.928c0.028-0.265,0.047-0.44,0.047-0.44
					s0.143,0.103,0.356,0.257c0.214,0.159,0.518,0.378,0.78,0.627c0.27,0.259,0.561,0.476,0.752,0.739
					c0.197,0.257,0.329,0.428,0.329,0.428s-0.066,0.108-0.165,0.271c-0.094,0.168-0.241,0.348-0.41,0.507
					C98.394,83.664,98.072,84,98.072,84z"/>
			</g>
		</g>
	</g>
	<g>
		<g>
			<g>
				<path d="M92.572,73.5c0-0.001-2.451-1.181-2.426-1.354c0,0-0.059-0.353-0.145-0.881c-0.114-0.527-0.061-1.16-0.078-1.796
					c-0.02-0.631,0.063-1.246,0.088-1.707C90.049,67.305,90.072,67,90.072,67s0.149,0.267,0.373,0.668
					c0.23,0.393,0.498,0.939,0.845,1.422c0.339,0.478,0.629,1.002,0.923,1.26c0.262,0.278,0.437,0.463,0.437,0.463
					C92.484,70.74,92.573,73.5,92.572,73.5z"/>
			</g>
		</g>
	</g>
	<g>
		<g>
			<path style="fill:none;stroke:#000000;stroke-width:5;stroke-miterlimit:10;" d="M83.072,49.5"/>
		</g>
	</g>
	<g>
		<g>
			<g>
				<polygon points="117.072,74 115.903,74.836 116.572,73.5 117.908,72.831 				"/>
			</g>
		</g>
	</g>
	<g>
		<g>
			<g>
				<path d="M106.572,60c0,0-0.356-0.08-0.713-0.16c-0.09-0.02-0.179-0.04-0.262-0.059l-0.062-0.014l-0.03-0.006l-0.015-0.003
					l-0.002,0l0.086-0.004v0l0.002,0.001l0.004,0.001l0.063,0.02c0.079,0.021,0.136,0.019,0.136,0.019
					c-0.025,0.008,0.168-0.01,0.221-0.042c-0.127,0.056-0.26,0.124-0.394,0.206c-0.106,0.064-0.021,0.016-0.022,0.018l0.051-0.031
					c0.063-0.048,0.15-0.096,0.185-0.188c0.14-0.364,0.253-0.756,0.253-0.756s0.386-0.112,0.799-0.196
					c0.22-0.019,0.502,0.071,0.702,0.149c0.214,0.147,0.346,0.329,0.346,0.329c0,0-0.062,0.116-0.175,0.253
					c-0.106,0.178-0.298,0.152-0.469,0.233C106.924,59.885,106.572,60,106.572,60z"/>
			</g>
		</g>
	</g>
	<g>
		<g>
			<g>
				<polygon points="112.072,66 114.075,65.998 115.072,69 112.069,68.002 				"/>
			</g>
		</g>
	</g>
	<g>
		<g>
			<path style="fill:none;stroke:#000000;stroke-width:5;stroke-miterlimit:10;" d="M84.072,63"/>
		</g>
	</g>
	<g>
		<g>
			<g>
				<path d="M86.072,62c0,0,0.161,0.089,0.402,0.223c0.25,0.088,0.527,0.11,0.929,0.237c0.184,0.04,0.409,0.173,0.61,0.285
					c0.189,0.154,0.4,0.323,0.524,0.49c0.264,0.34,0.406,0.614,0.395,0.601c-0.014,0.227-0.034,0.45-0.062,0.665l-2.544,0.415
					c0.063-1.297-0.743-2.871-1.255-4.415l1.912,1.549c0.318,0.276,0.634,0.589,0.959,0.899c0.291,0.351,0.572,0.74,0.451,1.278
					c-0.707,0.091-1.414,0.183-1.978,0.274c-0.1-0.08-0.195-0.144-0.281-0.195c0.009-0.017,0.072-0.055,0.183-0.175
					c0.059-0.067,0.084-0.124,0.134-0.236c-0.001-0.113,0.031-0.24-0.031-0.412c-0.077-0.307-0.266-0.732-0.32-1.022
					C86.083,62.184,86.072,62,86.072,62z"/>
			</g>
		</g>
	</g>
	<g>
		<g>
			<path style="fill:none;stroke:#000000;stroke-width:5;stroke-miterlimit:10;" d="M84.072,59"/>
		</g>
	</g>
	<g>
		<g>
			<path style="fill:none;stroke:#000000;stroke-width:5;stroke-miterlimit:10;" d="M82.572,54.5"/>
		</g>
	</g>
	<g>
		<g>
			<g>
				<path d="M81.072,51c0,0-2.264-1.738-2.279-1.674c0,0-0.047-0.298-0.118-0.746c-0.057-0.459-0.208-1.049-0.354-1.659
					c-0.129-0.62-0.344-1.203-0.492-1.659c-0.153-0.457-0.256-0.762-0.256-0.762s0.248,0.203,0.619,0.508
					c0.371,0.31,0.896,0.718,1.348,1.189c0.47,0.46,0.959,0.927,1.277,1.315c0.335,0.384,0.559,0.64,0.559,0.64
					C81.432,48.183,81.072,51,81.072,51z"/>
			</g>
		</g>
	</g>
	<g>
		<g>
			<g>
				<path d="M121.072,79c0,0,0.485,0.144,0.971,0.286c0.241,0.079,0.487,0.132,0.668,0.16c0.179,0.03,0.298,0.05,0.298,0.05
					s0.026,0.709,0.183,1.479c0.058,0.394,0.168,0.748,0.244,1.041c0.082,0.291,0.137,0.484,0.137,0.484s-0.186-0.073-0.463-0.185
					c-0.275-0.117-0.68-0.269-1.034-0.468c-0.364-0.195-0.746-0.381-1.019-0.562c-0.277-0.183-0.463-0.304-0.463-0.304
					s0.021-0.131,0.053-0.327c0.029-0.195,0.08-0.444,0.154-0.685C120.937,79.485,121.072,79,121.072,79z"/>
			</g>
		</g>
	</g>
	<g>
		<g>
			<g>
				<path d="M81.072,118c0,0,0.039,0.128,0.099,0.319c0.057,0.197,0.166,0.423,0.125,0.767c-0.009,0.164-0.031,0.341-0.063,0.513
					c-0.034,0.148-0.075,0.285-0.115,0.408c-0.08,0.245-0.152,0.416-0.152,0.416s-0.074,0.032-0.205,0.06
					c-0.127,0.027-0.309,0.066-0.527,0.114c-0.426,0.054-0.956,0.049-1.429-0.046c-0.477-0.087-0.908-0.222-1.221-0.347
					c-0.307-0.122-0.511-0.204-0.511-0.204s0.829-0.351,1.451-0.839c0.316-0.237,0.543-0.518,0.66-0.715
					c0.093-0.217,0.143-0.321,0.132-0.329c0,0,0.078,0.041,0.226,0.09c0.073,0.024,0.169,0.05,0.271,0.071
					c0.08,0.021,0.178,0.038,0.289,0.043c0.229,0.04,0.489-0.106,0.666-0.186C80.95,118.055,81.072,118,81.072,118z"/>
			</g>
		</g>
	</g>
	<g>
		<g>
			<g>
				<path d="M67.572,123c0,0-0.975,0.473-1.95,0.946c-0.485,0.238-0.979,0.468-1.336,0.655c-0.353,0.189-0.587,0.316-0.587,0.316
					s-0.506-0.011-1.265-0.026c-0.771-0.041-1.771,0.008-2.788,0.069c-0.505,0.04-1.034,0.024-1.498,0.11
					c-0.473,0.078-0.914,0.15-1.292,0.213c-0.771,0.13-1.284,0.216-1.284,0.216s0.453-0.253,1.134-0.632
					c0.347-0.192,0.753-0.417,1.187-0.656c0.438-0.252,0.933-0.41,1.418-0.629c0.977-0.416,1.976-0.825,2.733-1.052
					c0.761-0.253,1.267-0.422,1.267-0.422s0.271,0.047,0.68,0.118c0.403,0.074,0.93,0.198,1.461,0.311
					C66.512,122.77,67.572,123,67.572,123z"/>
			</g>
		</g>
	</g>
	<g>
		<g>
			<g>
				<path d="M50.572,129.5c0,0-0.157,0.062-0.393,0.153c-0.234,0.087-0.564,0.21-0.812,0.391c-0.254,0.156-0.479,0.329-0.662,0.482
					c-0.167,0.143-0.279,0.237-0.279,0.237s-0.06-0.026-0.167-0.046c-0.109-0.021-0.267-0.051-0.454-0.086
					c-0.194-0.046-0.421-0.059-0.672-0.073c-0.254-0.026-0.525-0.027-0.8-0.004c-0.56,0.01-1.121,0.13-1.548,0.234
					c-0.429,0.127-0.714,0.211-0.714,0.211s0.191-0.234,0.479-0.586c0.303-0.341,0.742-0.803,1.264-1.179
					c0.253-0.205,0.523-0.392,0.793-0.543c0.267-0.161,0.522-0.315,0.757-0.412c0.236-0.106,0.434-0.195,0.571-0.257
					c0.14-0.063,0.225-0.083,0.225-0.083s0.175,0.079,0.437,0.196c0.246,0.108,0.594,0.289,0.913,0.496
					c0.328,0.188,0.563,0.412,0.75,0.585C50.447,129.387,50.572,129.5,50.572,129.5z"/>
			</g>
		</g>
	</g>
	<g>
		<g>
			<g>
				<path d="M38.072,133.5c0,0-0.164,0.356-0.372,0.703c-0.202,0.351-0.461,0.684-0.461,0.684s-0.443-0.39-0.777-0.872
					c-0.369-0.481-0.402-1.034-0.39-1.015c0.012,0.015,0.504-0.039,0.827-0.334c0.336-0.265,0.601-0.603,0.601-0.603
					s0.092,0.365,0.241,0.723C37.885,133.146,38.072,133.5,38.072,133.5z"/>
			</g>
		</g>
	</g>
	<g>
		<g>
			<g>
				<polygon points="33.072,133 32.739,134.418 32.072,133 32.739,131.582 				"/>
			</g>
		</g>
	</g>
	<g>
		<g>
			<g>
				<path d="M42.572,147.5c0,0,0.168-0.509,0.337-1.017c0.089-0.254,0.156-0.51,0.243-0.698c0.104-0.19,0.174-0.317,0.174-0.317
					s0.262-0.016,0.654-0.038c0.383-0.039,0.879,0.015,1.346,0.089c0.463,0.041,0.912,0.191,1.23,0.303
					c0.31,0.107,0.516,0.179,0.516,0.179s-0.193,0.105-0.483,0.263c-0.281,0.153-0.634,0.351-0.94,0.637
					c-0.66,0.485-1.013,1.118-1.024,1.089c0,0-0.115-0.05-0.288-0.124c-0.186-0.062-0.456-0.098-0.716-0.155
					C43.097,147.604,42.572,147.5,42.572,147.5z"/>
			</g>
		</g>
	</g>
	<g>
		<g>
			<g>
				<path d="M55.572,145c0,0,0.239-0.069,0.599-0.174c0.352-0.114,0.856-0.216,1.295-0.415c0.451-0.188,0.86-0.34,1.184-0.506
					c0.317-0.158,0.528-0.264,0.528-0.264s0.436,0.079,1.111,0.102c0.674,0.051,1.59,0.058,2.521,0.025
					c1.864-0.069,3.762-0.269,3.762-0.269s-1.675,0.874-3.443,1.65c-0.885,0.385-1.802,0.74-2.516,0.963
					c-0.706,0.251-1.204,0.354-1.204,0.354s-0.253-0.069-0.634-0.174c-0.373-0.097-0.898-0.296-1.378-0.467
					c-0.495-0.159-0.917-0.408-1.263-0.559C55.797,145.107,55.572,145,55.572,145z"/>
			</g>
		</g>
	</g>
	<g>
		<g>
			<g>
				<path d="M72.072,143c0,0,0.664-0.387,1.329-0.773c0.334-0.19,0.67-0.384,0.885-0.561c0.221-0.166,0.368-0.276,0.368-0.276
					s1.26,0.227,2.645,0.228c0.695,0.054,1.366-0.027,1.893-0.055c0.528-0.037,0.881-0.063,0.881-0.063s-0.294,0.192-0.734,0.48
					c-0.448,0.282-1.048,0.712-1.698,1.013c-1.257,0.705-2.714,1.219-2.714,1.219s-0.189-0.063-0.476-0.159
					c-0.29-0.085-0.636-0.246-0.983-0.41C72.77,143.321,72.072,143,72.072,143z"/>
			</g>
		</g>
	</g>
	<g>
		<g>
			<g>
				<path d="M86.072,141c0,0,0.172-0.377,0.344-0.754c0.077-0.19,0.19-0.371,0.217-0.523c0.021-0.148,0.035-0.247,0.035-0.247
					s0.062,0.065,0.186,0.166c0.08,0.115,0.447,0.19,0.699,0.301c0.262,0.089,0.563,0.263,0.735,0.368
					c0.182,0.113,0.284,0.189,0.284,0.189s-0.109,0.102-0.245,0.252c-0.142,0.161-0.277,0.318-0.417,0.563
					c-0.157,0.232-0.199,0.429-0.426,0.635c-0.183,0.191-0.325,0.318-0.325,0.318s-0.088-0.068-0.221-0.172
					c-0.127-0.104-0.229-0.281-0.362-0.44C86.324,141.328,86.072,141,86.072,141z"/>
			</g>
		</g>
	</g>
	<g>
		<g>
			<path style="fill:none;stroke:#000000;stroke-width:5;stroke-miterlimit:10;" d="M97.072,139.5"/>
		</g>
	</g>
	<g>
		<g>
			<g>
				<polygon points="143.572,161.5 144.241,162.836 142.572,162.5 142.236,160.831 				"/>
			</g>
		</g>
	</g>
	<g>
		<g>
			<g>
				<path d="M140.072,165.5c0,0,0.321,0.193,0.644,0.386c0.347,0.144,0.579,0.516,0.579,0.516s-0.131,0.104-0.327,0.219
					c-0.221,0.164-0.383,0.093-0.603,0.145c-0.226,0.042-0.388,0.044-0.54,0.107c-0.149,0.057-0.253,0.128-0.253,0.128
					s-0.076-0.059-0.186-0.196c-0.111-0.132-0.237-0.395-0.329-0.586c-0.109-0.189-0.16-0.502-0.298-0.519
					c-0.113-0.065-0.189-0.083-0.189-0.083s0.374,0.142,0.75,0.017C139.696,165.566,140.072,165.5,140.072,165.5z"/>
			</g>
		</g>
	</g>
	<g>
		<g>
			<g>
				<path d="M139.572,174.5c0,0,0.246,0.494,0.491,0.988c0.218,0.522,0.563,0.916,0.563,0.917c0,0-0.105,0.159-0.265,0.398
					c-0.174,0.23-0.356,0.646-0.553,1.042c-0.394,0.804-0.736,1.654-0.736,1.654s-0.366-0.831-0.681-1.708
					c-0.35-0.833-0.553-1.909-0.553-1.908c0,0,0.393-0.45,0.849-0.737C139.13,174.823,139.572,174.5,139.572,174.5z"/>
			</g>
		</g>
	</g>
	<g>
		<g>
			<g>
				<polygon points="136.072,189 136.934,191.229 134.572,194.5 134.211,190.437 				"/>
			</g>
		</g>
	</g>
	<g>
		<g>
			<g>
				<polygon points="134.572,210 135.99,211.667 134.572,215 133.154,211.667 				"/>
			</g>
		</g>
	</g>
	<g>
		<g>
			<g>
				<polygon points="114.572,162.5 115.99,164.667 114.572,169 113.154,164.667 				"/>
			</g>
		</g>
	</g>
	<g>
		<g>
			<g>
				<polygon points="116.072,178 117.49,180.833 116.072,186.5 114.654,180.833 				"/>
			</g>
		</g>
	</g>
	<g>
		<g>
			<g>
				<polygon points="117.072,196 118.49,196.167 117.072,196.5 115.654,196.167 				"/>
			</g>
		</g>
	</g>
	<g>
		<g>
			<g>
				<polygon points="117.072,199 118.49,201.333 117.072,206 115.654,201.333 				"/>
			</g>
		</g>
	</g>
	<g>
		<g>
			<g>
				<path d="M181.572,128c0,0.001,1.853-0.832,1.961-0.721c0,0,0.165,0.189,0.413,0.474c0.251,0.259,0.452,0.731,0.661,1.116
					c0.22,0.385,0.266,0.848,0.355,1.138c0.065,0.296,0.109,0.493,0.109,0.493s-0.185-0.089-0.461-0.224
					c-0.284-0.108-0.59-0.321-0.971-0.37c-0.374-0.053-0.669-0.149-0.932-0.105c-0.236,0.023-0.395,0.039-0.395,0.039
					C182.472,129.846,181.572,128,181.572,128z"/>
			</g>
		</g>
	</g>
	<g>
		<g>
			<g>
				<path d="M197.072,135.5l5.922,0.188c0,0,2.682,1.071,5.322,2.355c2.628,1.229,5.256,2.457,5.256,2.457s-2.838-0.552-5.676-1.104
					c-2.797-0.59-5.677-0.981-5.677-0.981L197.072,135.5z"/>
			</g>
		</g>
	</g>
	<g>
		<g>
			<g>
				<path d="M173.072,149c0,0,0.329-0.252,0.658-0.505c0.33-0.25,0.661-0.502,0.635-0.523c0.012-0.015,0.068,0.38,0.428,0.78
					c0.333,0.399,0.779,0.748,0.779,0.748s-0.413,0.365-0.933,0.661c-0.243,0.168-0.565,0.271-0.818,0.351
					c-0.253,0.078-0.438,0.12-0.438,0.12c-0.034-0.001-0.102-0.408-0.171-0.816C173.143,149.408,173.072,149,173.072,149z"/>
			</g>
		</g>
	</g>
	<g>
		<g>
			<g>
				<path d="M185.072,152c0,0,0.566-0.324,1.132-0.648c0.545-0.345,1.188-0.595,1.188-0.595c-0.001,0,1.175,0.493,2.174,1.072
					c0.519,0.271,1.016,0.578,1.389,0.8c0.371,0.223,0.618,0.371,0.618,0.371s-0.288,0.024-0.719,0.061
					c-0.431,0.037-0.999,0.077-1.563,0.159c-1.15,0.118-2.159,0.361-2.159,0.36c0,0-0.441-0.446-0.997-0.813
					C185.604,152.384,185.072,152,185.072,152z"/>
			</g>
		</g>
	</g>
	<g>
		<g>
			<g>
				<polygon points="200.572,155.5 202.072,154.082 205.072,155.5 202.072,156.918 				"/>
			</g>
		</g>
	</g>
	<g>
		<g>
			<g>
				<polygon points="214.072,159 216.739,157.582 222.072,159 216.739,160.418 				"/>
			</g>
		</g>
	</g>
	<g style="opacity:0.7;">
		<path d="M141.692,73.75c0,0-6.62,38.25,43.38,32.75c-0.5,7.5,2.261,9,2.261,9s-46.261-3.207-21.641,44.847
			c-5.094,3.001-6.12,3.884-6.12,3.884s-24-32.054-57-1.554c-2.25-5-5.5-4.677-5.5-4.677s29.768-39-15.76-50.033
			c2.24-2.033,3.76-3.967,3.76-3.967s43.126,22.438,51.012-31.486C138.685,73.245,141.692,73.75,141.692,73.75z"/>
	</g>
</g>
<g id="MVCrazor">
	<rect x="-808.503" style="fill:#1785AA;stroke:#000000;stroke-miterlimit:10;" width="249.501" height="249.667"/>
	<g>
		<g>
			<path style="fill:#11647B;" d="M-718.036,100.084c49.009,0,98.018,0,147.026,0c3.279,0,6.559,0,9.837,0
				c2.688,0,6.107-0.799,7.616-3.295c1.409-2.33-1.187-3.904-3.274-3.904c-49.009,0-98.018,0-147.026,0c-3.279,0-6.559,0-9.837,0
				c-2.688,0-6.107,0.799-7.616,3.295C-722.72,98.51-720.124,100.084-718.036,100.084L-718.036,100.084z"/>
		</g>
	</g>
	<g>
		<g>
			<path style="fill:#11647B;" d="M-720.868,168.52c49.082,0,98.165,0,147.248,0c3.44,0,6.881,0,10.322,0
				c2.753,0,5.817-0.802,8.196-2.195c1.866-1.095,1.581-2.254-0.604-2.254c-49.082,0-98.165,0-147.248,0c-3.44,0-6.881,0-10.322,0
				c-2.753,0-5.817,0.802-8.196,2.195C-723.339,167.36-723.054,168.52-720.868,168.52L-720.868,168.52z"/>
		</g>
	</g>
	<g>
		<g>
			<path style="fill:#11647B;" d="M-628.372,6.575c0,46.621,0,93.243,0,139.864c0,32.723,0,65.445,0,98.169
				c0,5.4,11.654,3.157,11.654-1.217c0-46.621,0-93.243,0-139.864c0-32.723,0-65.445,0-98.169
				C-616.718-0.042-628.372,2.201-628.372,6.575L-628.372,6.575z"/>
		</g>
	</g>
	<g>
		<g>
			<path style="fill:#11647B;" d="M-553.706,237.628c0-47.638,0-95.276,0-142.914c0-28.494,0-56.987,0-85.481
				c-0.106-0.119-0.212-0.237-0.317-0.355c-21.516-10.327-48.771-8.973-71.262-3.664c-24.542,5.792-46.834,18.779-65.72,35.249
				c-5.771,5.032-10.143,9.974-14.229,16.435c-4.082,6.453-7.67,13.21-10.844,20.152c-5.096,11.144-8.609,22.972-10.472,35.077
				C-736.49,176.744-685,238.591-621.483,246.908c20.9,2.737,42.249-0.54,62.396-6.181
				C-558.251,240.493-553.279,239.221-553.706,237.628c-0.424-1.581-5.376-0.228-6.21,0.006
				c-23.509,6.581-48.206,8.342-71.666,0.629c-13.229-4.35-25.222-11.694-36.743-19.38c-23.945-15.974-40.537-45.406-45.945-73.1
				c-4.486-22.978-0.686-46.463,8.271-67.891c5.988-14.328,13.77-28.185,25.422-38.551c10.531-9.37,22.272-17.479,35.01-23.546
				c24.183-11.518,55.129-14.378,80.149-3.303c0.555,0.245,0.121,9.902,0.121,11.426c0,9.96,0,19.92,0,29.88
				c0,31.151,0,62.302,0,93.453c0,31.16,0,62.321,0,93.481C-565.298,242.226-553.706,240.676-553.706,237.628z"/>
		</g>
	</g>
	
		<text transform="matrix(1 0 0 1 -770.5977 83.7041)" style="fill:#FFFFFF;stroke:#FFFFFF;stroke-miterlimit:10; font-family:'MyriadPro-Regular'; font-size:48;">ASP.NET</text>
	
		<text transform="matrix(1 0 0 1 -770.5977 115.1475)" style="fill:#FFFFFF;stroke:#FFFFFF;stroke-miterlimit:10; font-family:'MyriadPro-Regular'; font-size:31;">MVC 4 Razor</text>
</g>
<g id="MockLayer">
	<rect x="-269.501" y="0.15" style="fill:#191919;stroke:#000000;stroke-miterlimit:10;" width="249.501" height="249.667"/>
	<g>
		<g>
			<path style="fill:#EF3D23;" d="M-356.695,101.602c-6.734-7.247-15.339-13.609-25.649-11.034
				c-6.965,1.74-11.162,7.962-12.193,14.764c-1.761,11.621,7.725,18.754,16.092,24.687c10.8,7.658,20.064,17.131,22.512,30.595
				c0.116,0.637,2.639-0.234,2.875-0.656c7.628-13.599,23.259-18.843,32.648-30.859c7.855-10.053,11.197-29.497,4.078-40.595
				c-10.35-16.136-39.033-13.091-44.05,5.798c-0.141,0.529,2.668,0.155,2.852-0.535c5.908-22.243,38.405-16.715,41.609,4.253
				c2.086,13.642-2.942,28.499-13.069,37.75c-9.179,8.384-20.614,13.48-26.92,24.724c0.958-0.219,1.916-0.438,2.875-0.656
				c-1.75-9.625-6.937-17.337-13.995-23.921c-7.14-6.66-16.772-10.833-22.193-19.209c-4.051-6.258-3.156-14.942,1.046-20.836
				c8.146-11.425,22.198-0.352,28.747,6.695C-358.957,103.075-356.306,102.021-356.695,101.602L-356.695,101.602z"/>
		</g>
	</g>
	<text transform="matrix(1 0 0 1 -27.002 480)" style="font-family:'MyriadPro-Regular'; font-size:12;">ee3d23</text>
	
		<text transform="matrix(1.1072 0 0 1 -518.3477 136.7734)" style="fill:#EFED7F; font-family:'JellykaDeliciousCake'; font-size:48;">Beautiful</text>
	<g>
		<g>
			<path style="fill:#EF3D23;" d="M-365.469,144.157c5.387,4.459,8.296,9.605,9.534,16.455c0.115,0.637,2.639-0.234,2.875-0.656
				c7.628-13.598,23.259-18.843,32.648-30.859c7.855-10.053,11.197-29.497,4.078-40.595c-10.35-16.136-39.033-13.091-44.05,5.798
				c-0.141,0.529,2.668,0.155,2.852-0.535c5.908-22.243,38.405-16.715,41.609,4.253c2.086,13.642-2.942,28.499-13.069,37.75
				c-9.179,8.384-20.614,13.48-26.92,24.724c0.958-0.219,1.916-0.438,2.875-0.656c-1.254-6.933-4.293-12.168-9.696-16.641
				C-363.314,142.712-365.837,143.853-365.469,144.157L-365.469,144.157z"/>
		</g>
	</g>
	<g>
		<g>
			<path style="fill:#EF3D23;" d="M-371.376,101.56c0.567,0,3.288-1.119,1.896-1.119C-370.047,100.44-372.768,101.56-371.376,101.56
				L-371.376,101.56z"/>
		</g>
	</g>
	<g>
		<g>
			<path style="fill:#EF3D23;" d="M-332.376,91.56c0.567,0,3.288-1.119,1.896-1.119C-331.047,90.44-333.768,91.56-332.376,91.56
				L-332.376,91.56z"/>
		</g>
	</g>
	<text transform="matrix(1 0 0 1 -252.7607 85.0195)"><tspan x="0" y="0" style="fill:#FFFFFF; font-family:'ArialMT'; font-size:14;">I love to build things</tspan><tspan x="0" y="16.8" style="fill:#FFFFFF; font-family:'ArialMT'; font-size:14;">I love databases</tspan><tspan x="0" y="33.601" style="fill:#FFFFFF; font-family:'ArialMT'; font-size:14;">&amp; I love to make them beautiful</tspan></text>
	<text transform="matrix(1 0 0 1 -256.998 27.6665)"><tspan x="0" y="0" style="fill:#FFFFFF; font-family:'Arial-BoldMT'; font-size:20;">Danielle Stirling</tspan><tspan x="3.33" y="24" style="fill:#FFFFFF; font-family:'Arial-BoldMT'; font-size:20;">Web Developer</tspan></text>
	<g>
		<g>
			<path style="fill:#EF3D23;" d="M-356.694,101.871c-6.836-7.356-16.765-14.724-27.252-10.495
				c-8.193,3.303-11.686,11.892-10.449,20.31c0.076,0.516,2.999-0.092,2.898-0.777c-0.94-6.401,0.724-12.934,5.729-17.265
				c8.636-7.471,20.646,3.065,26.337,9.19C-358.956,103.345-356.305,102.29-356.694,101.871L-356.694,101.871z"/>
		</g>
	</g>
</g>
<g id="Layer_7">
</g>
<g id="php">
	<rect x="-1347.504" style="fill:#1785AA;stroke:#000000;stroke-miterlimit:10;" width="249.5" height="249.667"/>
	
		<text transform="matrix(1.0129 0 0 1 -1291.3555 130.7734)" style="fill:#FFFFFF; font-family:'MyriadPro-Regular'; font-size:79.9882;">php</text>
	<g>
		<g>
			<path style="fill:#11647B;" d="M-1133.376,114.853c-0.376,19.747-23.406,30.364-39.34,35.659
				c-26.556,8.823-56.119,9.63-83.547,4.984c-19.983-3.386-45.185-10.842-56.85-28.944c-10.698-16.603,3.797-32.212,17.854-40.148
				c29.633-16.73,68.535-18.169,101.313-12.617c15.078,2.554,30.317,7.291,43.21,15.688
				C-1142.021,95.149-1133.586,103.83-1133.376,114.853c0.06,3.084,5.927,2.218,5.877-0.424
				c-0.336-17.577-17.026-28.606-31.375-35.182c-23.557-10.793-50.928-13.426-76.527-12.171
				c-23.477,1.151-48.295,6.375-68.229,19.358c-12.704,8.273-23.419,22.601-17.115,38.192c5.999,14.837,22.933,23.268,37.003,28.486
				c21.813,8.091,45.843,10.227,68.935,9.095c21.365-1.048,43.525-5.536,62.441-15.849c11.919-6.497,24.587-17.243,24.867-31.93
				C-1127.44,111.354-1133.325,112.195-1133.376,114.853z"/>
		</g>
	</g>
</g>
<g id="Libraries">
	<rect x="-1078.004" y="0.605" style="fill:#1785AA;" width="249.5" height="249.667"/>
	<text transform="matrix(1 0 0 1 -1058.4277 126.4385)" style="fill:#FDFDFE; font-family:'MyriadPro-Regular'; font-size:60;">Libraries</text>
	<g>
		<g>
			<path style="fill:#11647B;" d="M-977.779,157.525c0,23.791,0,47.583,0,71.375c0,3.733,8.703,1.891,8.703-1.051
				c0-23.791,0-47.583,0-71.375C-969.076,152.741-977.779,154.584-977.779,157.525L-977.779,157.525z"/>
		</g>
	</g>
	<g>
		<g>
			<path style="fill:#11647B;" d="M-1051.842,153.293c0,26,0,52,0,78c0,3.691,5.199,3.615,7.33,1.814
				c5.424-4.585,12.259-7.805,18.958-9.968c16.892-5.456,34.151-1.769,48.795,7.816c1.858,1.216,4.544,0.894,6.247-0.474
				c18.277-14.682,50.157-17.513,66.135,2.471c1.967,2.46,8.383,1.41,8.383-2.246c-0.006-24.534-0.012-49.067-0.018-73.601
				c-0.001-1.989,0.781-6.563-1.268-7.798c-4.278-2.579-8.938-4.577-13.633-6.245c-19.894-7.064-41.534-5.646-59.098,6.563
				c-2.258,1.569-4.323,3.397-6.334,5.266c2.082-0.157,4.165-0.315,6.247-0.474c-21.716-19.051-54.929-17.605-79.293-4.119
				c-5.163,2.858-0.499,7.849,3.924,5.4c21.499-11.901,49.604-12.877,68.707,3.881c1.555,1.364,4.834,0.839,6.247-0.474
				c12.559-11.669,27.933-15.7,44.666-12.683c7.551,1.361,15.571,4.129,22.088,8.157c-0.361-0.763-0.722-1.525-1.083-2.288
				c0.007,26.333,0.013,52.666,0.019,78.999c2.795-0.748,5.589-1.497,8.383-2.246c-19.202-24.017-57.943-20.419-79.904-2.779
				c2.082-0.157,4.165-0.315,6.247-0.474c-16.578-10.851-35.683-14.655-54.934-9.543c-8.896,2.362-18.224,6.649-25.313,12.642
				c2.443,0.604,4.887,1.21,7.33,1.814c0-26,0-52,0-78C-1043.014,147.992-1051.842,149.191-1051.842,153.293z"/>
		</g>
	</g>
</g>
</svg>
