<?xml version="1.0" encoding="iso-8859-1"?>
<!-- Generator: Adobe Illustrator 16.0.0, SVG Export Plug-In . SVG Version: 6.00 Build 0)  -->
<!DOCTYPE svg PUBLIC "-//W3C//DTD SVG 1.1//EN" "http://www.w3.org/Graphics/SVG/1.1/DTD/svg11.dtd">
<svg version="1.1" id="Layer_1" xmlns="http://www.w3.org/2000/svg" xmlns:xlink="http://www.w3.org/1999/xlink" x="0px" y="0px"
	 width="800px" height="800px" viewBox="0 0 800 800" style="enable-background:new 0 0 800 800;" xml:space="preserve">
<path id="orcaoutline_6_" style="fill:none;stroke:#030303;stroke-miterlimit:10;" d="M705.354,520.82
	c5.667-3.082,31.333-3.584,50-1.918c18.667,1.667,41,23,41,23s-20,2.667-26,7.667s-6.475,5.063-12,8.667
	c-3.39,2.211-10,19-24,12.666c9,17-14.667,46-14.667,46s-19,11.332-28,16.332s-8,31.668-8,31.668s-12.524-19.105-18.667-42
	c-7.333-27.333,14.667-62.666,14.667-62.666s4.515-11.539,0-16c-22.667-21-77.5-42.834-77.5-42.834s-74.5-29-117-25
	s-24.5-2.5-98.5,15.5s-176.5,57.5-176.5,57.5s-32,14-75.5,37.5s-90,32.5-104.5,17.5c-18.5-4.5-20-8.5-20-8.5s-11-0.5-7.5-31.5
	c0,0-7-60,30.5-113c37.5-53,78-81.5,78-81.5s52.5-35.5,98-54.5c18-20,27-39,27-39s53-79.5,65.5-91.5s34-45.5,56.5-48
	c8-2-9.5,21.5-9.5,21.5s-5.5,12-19,56s-4,64.5,6,69s43-3.5,99.5,14c26.886,8.96,43.834,14.833,43.834,14.833
	s39,17.667,70.073,36.892c16.86,10.432,28.375,17.78,28.375,17.78s36.968,20.245,86.218,77.744c30,35.5,33.75,49.25,33.25,49.75
	c0,0,8.416,25.166,10.083,29.166s9.333,29.667,9,33.667"/>
<path id="orcaoutline_7_" style="fill:none;stroke:#030303;stroke-miterlimit:10;" d="M679.688,541.902"/>
<path id="Fin" style="fill:none;stroke:#030303;stroke-miterlimit:10;" d="M217.438,508.902c0,0-0.567,7.009,9.666,13.914
	c10.234,6.904,10.234,6.904,10.234,6.904s35.35,19.682,57.85,25.682s32,21.336,92,4.668s61-36.668,60-46.918s-11.51-25.21-46-21.947
	s-34.49,3.263-34.49,3.263s-24.067,2.771-59.539-2.397c-35.471-5.168-38.971-14.168-38.971-14.168S227.688,457.902,217.438,508.902z
	"/>
<path id="mouth" style="fill:none;stroke:#010101;stroke-miterlimit:10;" d="M26.869,603.553c0,0,21.318,2.85,37.318-5.15
	c11.5-5.5,7.416-5.332,21.25-10.75c14.115-5.527,31.355-13.809,39.25-17.75c6.605-3.297,28.31-17.5,38.244-27.779
	c7.392-7.648,29.756-36.971,54.506-33.221c-0.5,6.75,3.75,9.25,4.75,10.25s15.597,11.502,25.174,16.501
	c-13.082,4.749-52.228,20.655-52.228,20.655l-58.554,29.574C136.58,585.883,59.802,628.955,26.869,603.553z"/>
<path id="body_1_" style="fill:none;stroke:#010101;stroke-miterlimit:10;" d="M274.938,481.402c0,0,30.25,4.5,74.25-5.5
	s51.25-22,88.75-35s55.75-25.5,102.25-30.25c38.75,0.25,44.25,16,44.25,16s-20,6.5-36,21c-9,7.75-1.5,14.25-1.5,14.25s32,9,42.25,12
	s13.5,1.75,21.25,18.5c6.802,9.941,17.25,13.25,17.25,13.25s6.994,1.25,7.247,7.5c-16.497-4.5-25.449-9.134-42.173-15.209
	c-43.324-13.291-41.193-14.746-56.884-16.518c-37.69-7.273-54.972-4.638-54.972-4.638s-21.91-1.134-67.439,8.74
	s-57.529,10.374-60.529,10.124s-3-0.25-3-0.25S300.438,496.652,274.938,481.402z"/>
<path id="patch" style="fill:#FFFFFF;stroke:#030303;stroke-miterlimit:10;" d="M83.188,481.402c0,0,17.5-23,45.5-28s26,4.5,22,14
	s-1.5,15.5-21.5,36c-8.334,6.336-16.307,12.947-26.334,18.613c-0.5,0.667-27.499,18.221-33.332,0.221
	C63.688,504.236,83.188,481.402,83.188,481.402z"/>
<path style="fill:none;stroke:#010101;stroke-miterlimit:10;" d="M367.704,285.515c0,0-37.589,0.388-35.303,24.388
	s10.12,19.833,13.453,28.167c3.424,8.56,8.463,14.833,4.147,22.833c-4.314,8,20.719-4,17.702-22s0.983-33,8.983-32
	s24.167-15.5,24.167-15.5S405.354,287.236,367.704,285.515z"/>
</svg>
